G04 #@! TF.FileFunction,Copper,L1,Top,Signal*
%FSLAX46Y46*%
G04 Gerber Fmt 4.6, Leading zero omitted, Abs format (unit mm)*
G04 Created by KiCad (PCBNEW 4.0.3+e1-6302~38~ubuntu14.04.1-stable) date Fri Mar 24 19:53:49 2017*
%MOMM*%
%LPD*%
G01*
G04 APERTURE LIST*
%ADD10C,0.100000*%
%ADD11C,1.600000*%
%ADD12R,5.000000X4.700000*%
%ADD13R,1.800000X1.800000*%
%ADD14O,1.800000X1.800000*%
%ADD15C,2.000000*%
%ADD16C,1.524000*%
%ADD17R,1.600000X1.600000*%
%ADD18O,1.600000X1.600000*%
%ADD19C,1.000000*%
%ADD20R,1.000000X1.000000*%
%ADD21R,2.200000X2.200000*%
%ADD22O,2.200000X2.200000*%
%ADD23C,1.800000*%
%ADD24R,1.700000X1.700000*%
%ADD25O,1.700000X1.700000*%
%ADD26R,1.524000X1.524000*%
%ADD27C,0.250000*%
%ADD28C,0.500000*%
G04 APERTURE END LIST*
D10*
D11*
X110490000Y-96520000D03*
X110490000Y-101520000D03*
D12*
X117475000Y-127300000D03*
X117475000Y-114300000D03*
X117475000Y-101300000D03*
D13*
X110490000Y-92710000D03*
D14*
X113030000Y-92710000D03*
X115570000Y-92710000D03*
D15*
X153090000Y-54610000D03*
X148590000Y-54610000D03*
X153090000Y-48110000D03*
X148590000Y-48110000D03*
D16*
X138430000Y-128270000D03*
X133350000Y-128270000D03*
D17*
X120650000Y-60960000D03*
D18*
X128270000Y-93980000D03*
X120650000Y-63500000D03*
X128270000Y-91440000D03*
X120650000Y-66040000D03*
X128270000Y-88900000D03*
X120650000Y-68580000D03*
X128270000Y-86360000D03*
X120650000Y-71120000D03*
X128270000Y-83820000D03*
X120650000Y-73660000D03*
X128270000Y-81280000D03*
X120650000Y-76200000D03*
X128270000Y-78740000D03*
X120650000Y-78740000D03*
X128270000Y-76200000D03*
X120650000Y-81280000D03*
X128270000Y-73660000D03*
X120650000Y-83820000D03*
X128270000Y-71120000D03*
X120650000Y-86360000D03*
X128270000Y-68580000D03*
X120650000Y-88900000D03*
X128270000Y-66040000D03*
X120650000Y-91440000D03*
X128270000Y-63500000D03*
X120650000Y-93980000D03*
X128270000Y-60960000D03*
D15*
X142930000Y-54610000D03*
X138430000Y-54610000D03*
X142930000Y-48110000D03*
X138430000Y-48110000D03*
D19*
X149860000Y-120650000D03*
X148590000Y-121920000D03*
D20*
X148590000Y-119380000D03*
D21*
X128270000Y-127000000D03*
D22*
X123190000Y-127000000D03*
D13*
X133985000Y-54610000D03*
D23*
X131445000Y-54610000D03*
D19*
X149860000Y-114300000D03*
X148590000Y-115570000D03*
D20*
X148590000Y-113030000D03*
D19*
X149860000Y-107950000D03*
X148590000Y-109220000D03*
D20*
X148590000Y-106680000D03*
D19*
X149860000Y-101600000D03*
X148590000Y-102870000D03*
D20*
X148590000Y-100330000D03*
D19*
X149860000Y-95250000D03*
X148590000Y-96520000D03*
D20*
X148590000Y-93980000D03*
D19*
X149860000Y-88900000D03*
X148590000Y-90170000D03*
D20*
X148590000Y-87630000D03*
D19*
X149860000Y-82550000D03*
X148590000Y-83820000D03*
D20*
X148590000Y-81280000D03*
D19*
X149860000Y-76200000D03*
X148590000Y-77470000D03*
D20*
X148590000Y-74930000D03*
D19*
X149860000Y-69850000D03*
X148590000Y-71120000D03*
D20*
X148590000Y-68580000D03*
D19*
X149860000Y-63500000D03*
X148590000Y-64770000D03*
D20*
X148590000Y-62230000D03*
D16*
X126365000Y-54610000D03*
X116205000Y-54610000D03*
X126365000Y-51435000D03*
X116205000Y-51435000D03*
X133350000Y-121920000D03*
X143510000Y-121920000D03*
X133350000Y-115570000D03*
X143510000Y-115570000D03*
X133350000Y-109220000D03*
X143510000Y-109220000D03*
X133350000Y-102870000D03*
X143510000Y-102870000D03*
X133350000Y-96520000D03*
X143510000Y-96520000D03*
X133350000Y-90170000D03*
X143510000Y-90170000D03*
X133350000Y-83820000D03*
X143510000Y-83820000D03*
X133350000Y-77470000D03*
X143510000Y-77470000D03*
X133350000Y-71120000D03*
X143510000Y-71120000D03*
X133350000Y-64770000D03*
X143510000Y-64770000D03*
D19*
X116205000Y-70485000D03*
X114305000Y-70485000D03*
D16*
X133350000Y-119380000D03*
X143510000Y-119380000D03*
X133350000Y-113030000D03*
X143510000Y-113030000D03*
X133350000Y-106680000D03*
X143510000Y-106680000D03*
X133350000Y-100330000D03*
X143510000Y-100330000D03*
X133350000Y-93980000D03*
X143510000Y-93980000D03*
X133350000Y-87630000D03*
X143510000Y-87630000D03*
X133350000Y-81280000D03*
X143510000Y-81280000D03*
X133350000Y-74930000D03*
X143510000Y-74930000D03*
X133350000Y-68580000D03*
X143510000Y-68580000D03*
X133350000Y-62230000D03*
X143510000Y-62230000D03*
D24*
X161290000Y-72390000D03*
D25*
X161290000Y-69850000D03*
X161290000Y-67310000D03*
X161290000Y-64770000D03*
X161290000Y-62230000D03*
X161290000Y-59690000D03*
D24*
X133350000Y-48895000D03*
D25*
X130810000Y-48895000D03*
D16*
X156210000Y-80010000D03*
X161710000Y-80010000D03*
X156210000Y-84210000D03*
X161710000Y-84210000D03*
X156210000Y-88410000D03*
X161710000Y-88410000D03*
X156210000Y-92610000D03*
X161710000Y-92610000D03*
X156210000Y-96810000D03*
X161710000Y-96810000D03*
X156210000Y-101010000D03*
X161710000Y-101010000D03*
X156210000Y-105210000D03*
X161710000Y-105210000D03*
X156210000Y-109410000D03*
X161710000Y-109410000D03*
X156210000Y-113610000D03*
X161710000Y-113610000D03*
X156210000Y-117810000D03*
X161710000Y-117810000D03*
X144740000Y-129530000D03*
D26*
X149740000Y-129530000D03*
D11*
X110490000Y-62230000D03*
X110490000Y-57230000D03*
X110490000Y-65405000D03*
X110490000Y-70405000D03*
D17*
X125730000Y-100330000D03*
D11*
X123230000Y-100330000D03*
D21*
X128270000Y-132080000D03*
D22*
X123190000Y-132080000D03*
D27*
X123190000Y-127000000D02*
X117775000Y-127000000D01*
X117775000Y-127000000D02*
X117475000Y-127300000D01*
X117475000Y-127300000D02*
X117475000Y-123825000D01*
X117475000Y-106045000D02*
X117475000Y-101300000D01*
X112395000Y-111125000D02*
X117475000Y-106045000D01*
X112395000Y-118745000D02*
X112395000Y-111125000D01*
X117475000Y-123825000D02*
X112395000Y-118745000D01*
X146050000Y-57150000D02*
X147955000Y-57150000D01*
X148590000Y-56515000D02*
X148590000Y-54610000D01*
X147955000Y-57150000D02*
X148590000Y-56515000D01*
X142240000Y-57150000D02*
X142875000Y-56515000D01*
X142875000Y-56515000D02*
X142875000Y-54665000D01*
X143510000Y-57150000D02*
X146050000Y-57150000D01*
X142875000Y-56515000D02*
X143510000Y-57150000D01*
X142875000Y-54665000D02*
X142930000Y-54610000D01*
X110490000Y-92710000D02*
X110490000Y-91440000D01*
X116840000Y-90170000D02*
X118110000Y-91440000D01*
X111760000Y-90170000D02*
X116840000Y-90170000D01*
X110490000Y-91440000D02*
X111760000Y-90170000D01*
X118110000Y-91440000D02*
X118110000Y-95250000D01*
X107950000Y-99060000D02*
X108030000Y-99060000D01*
X108030000Y-99060000D02*
X110490000Y-101520000D01*
X110490000Y-92710000D02*
X109220000Y-92710000D01*
X107950000Y-93980000D02*
X107950000Y-99060000D01*
X109220000Y-92710000D02*
X107950000Y-93980000D01*
X110410000Y-101600000D02*
X110490000Y-101520000D01*
X123190000Y-132080000D02*
X122255000Y-132080000D01*
X110410000Y-101600000D02*
X110490000Y-101520000D01*
X123230000Y-100330000D02*
X123230000Y-96520000D01*
X123230000Y-100330000D02*
X123230000Y-108545000D01*
X123230000Y-108545000D02*
X117475000Y-114300000D01*
X119380000Y-96520000D02*
X123230000Y-96520000D01*
X118110000Y-95250000D02*
X119380000Y-96520000D01*
X125730000Y-96520000D02*
X123230000Y-96520000D01*
X129540000Y-76200000D02*
X130175000Y-76835000D01*
X128270000Y-76200000D02*
X129540000Y-76200000D01*
X127000000Y-96520000D02*
X125730000Y-96520000D01*
X130175000Y-76835000D02*
X130175000Y-94615000D01*
X130175000Y-94615000D02*
X130175000Y-95250000D01*
X130175000Y-95250000D02*
X128905000Y-96520000D01*
X128905000Y-96520000D02*
X127000000Y-96520000D01*
X123230000Y-96520000D02*
X123190000Y-96520000D01*
X123190000Y-96520000D02*
X123230000Y-96520000D01*
X123230000Y-96520000D02*
X123230000Y-94020000D01*
X121920000Y-78740000D02*
X120650000Y-78740000D01*
X123190000Y-92710000D02*
X123190000Y-80010000D01*
X123190000Y-80010000D02*
X121920000Y-78740000D01*
X123230000Y-94020000D02*
X123190000Y-93980000D01*
X123190000Y-93980000D02*
X123190000Y-92710000D01*
X118745000Y-58420000D02*
X117475000Y-57150000D01*
X117475000Y-57150000D02*
X110570000Y-57150000D01*
X110570000Y-57150000D02*
X110490000Y-57230000D01*
X118745000Y-58420000D02*
X120015000Y-57150000D01*
X120650000Y-78740000D02*
X119380000Y-78740000D01*
X118745000Y-78105000D02*
X118745000Y-58420000D01*
X119380000Y-78740000D02*
X118745000Y-78105000D01*
X117475000Y-57150000D02*
X110570000Y-57150000D01*
X110570000Y-57150000D02*
X110490000Y-57230000D01*
X120650000Y-57150000D02*
X123190000Y-57150000D01*
X126365000Y-57150000D02*
X123190000Y-57150000D01*
X133350000Y-57150000D02*
X126365000Y-57150000D01*
X133985000Y-56515000D02*
X133350000Y-57150000D01*
X120015000Y-57150000D02*
X120650000Y-57150000D01*
X133985000Y-55880000D02*
X133985000Y-54610000D01*
X133985000Y-56515000D02*
X134620000Y-57150000D01*
X134620000Y-57150000D02*
X142240000Y-57150000D01*
X133985000Y-55245000D02*
X133985000Y-55880000D01*
X133985000Y-55880000D02*
X133985000Y-56515000D01*
X148590000Y-48110000D02*
X148590000Y-54610000D01*
X142930000Y-48110000D02*
X142930000Y-54610000D01*
D28*
X133350000Y-128270000D02*
X133350000Y-121920000D01*
X133350000Y-115570000D02*
X132080000Y-115570000D01*
X131445000Y-114935000D02*
X132080000Y-115570000D01*
X132080000Y-115570000D02*
X131445000Y-116205000D01*
X132080000Y-121920000D02*
X131445000Y-121285000D01*
X131445000Y-116205000D02*
X131445000Y-121285000D01*
X133350000Y-121920000D02*
X132080000Y-121920000D01*
X133350000Y-109220000D02*
X132080000Y-109220000D01*
X131445000Y-108585000D02*
X132080000Y-109220000D01*
X132080000Y-109220000D02*
X131445000Y-109855000D01*
X133350000Y-102870000D02*
X132080000Y-102870000D01*
X131445000Y-102235000D02*
X132080000Y-102870000D01*
X132080000Y-102870000D02*
X131445000Y-103505000D01*
X133350000Y-96520000D02*
X132080000Y-96520000D01*
X131445000Y-95885000D02*
X132080000Y-96520000D01*
X132080000Y-96520000D02*
X131445000Y-97155000D01*
X133350000Y-90170000D02*
X132080000Y-90170000D01*
X131445000Y-89535000D02*
X132080000Y-90170000D01*
X132080000Y-90170000D02*
X131445000Y-90805000D01*
X133350000Y-77470000D02*
X132080000Y-77470000D01*
X131445000Y-76835000D02*
X132080000Y-77470000D01*
X131445000Y-78105000D02*
X131445000Y-78740000D01*
X132080000Y-77470000D02*
X131445000Y-78105000D01*
X131445000Y-83185000D02*
X132080000Y-83820000D01*
X131445000Y-83185000D02*
X131445000Y-78740000D01*
X132080000Y-83820000D02*
X131445000Y-84455000D01*
X133350000Y-83820000D02*
X132080000Y-83820000D01*
X132080000Y-71120000D02*
X133350000Y-71120000D01*
X131445000Y-70485000D02*
X132080000Y-71120000D01*
X132080000Y-71120000D02*
X131445000Y-71755000D01*
X131445000Y-114300000D02*
X131445000Y-114935000D01*
X131445000Y-109855000D02*
X131445000Y-114300000D01*
X131445000Y-107950000D02*
X131445000Y-108585000D01*
X131445000Y-103505000D02*
X131445000Y-107950000D01*
X131445000Y-101600000D02*
X131445000Y-97155000D01*
X131445000Y-102235000D02*
X131445000Y-101600000D01*
X131445000Y-95885000D02*
X131445000Y-90805000D01*
X131445000Y-89535000D02*
X131445000Y-84455000D01*
X131445000Y-76835000D02*
X131445000Y-71755000D01*
X131445000Y-70485000D02*
X131445000Y-65405000D01*
X132080000Y-64770000D02*
X131445000Y-65405000D01*
X133350000Y-64770000D02*
X132080000Y-64770000D01*
X115570000Y-92710000D02*
X115570000Y-93980000D01*
X113030000Y-96520000D02*
X110490000Y-96520000D01*
X115570000Y-93980000D02*
X113030000Y-96520000D01*
D27*
X128270000Y-114300000D02*
X128270000Y-113030000D01*
X125730000Y-110490000D02*
X125730000Y-100330000D01*
X128270000Y-113030000D02*
X125730000Y-110490000D01*
X128270000Y-127000000D02*
X128270000Y-114300000D01*
X127635000Y-49530000D02*
X125095000Y-49530000D01*
X133350000Y-48895000D02*
X133350000Y-50800000D01*
X133350000Y-50800000D02*
X132715000Y-51435000D01*
X132715000Y-51435000D02*
X129540000Y-51435000D01*
X129540000Y-51435000D02*
X127635000Y-49530000D01*
X125095000Y-49530000D02*
X123825000Y-50800000D01*
X123825000Y-50800000D02*
X123825000Y-53340000D01*
X123825000Y-53340000D02*
X125095000Y-54610000D01*
X125095000Y-54610000D02*
X126365000Y-54610000D01*
X120650000Y-76200000D02*
X121920000Y-76200000D01*
X121920000Y-76200000D02*
X127000000Y-81280000D01*
X127000000Y-81280000D02*
X128270000Y-81280000D01*
X131445000Y-54610000D02*
X130175000Y-54610000D01*
X130175000Y-54610000D02*
X127000000Y-51435000D01*
X127000000Y-51435000D02*
X126365000Y-51435000D01*
X153035000Y-57150000D02*
X153035000Y-54665000D01*
X153035000Y-54665000D02*
X153090000Y-54610000D01*
X151765000Y-57785000D02*
X152400000Y-57785000D01*
X155575000Y-59690000D02*
X156845000Y-59690000D01*
X153035000Y-57150000D02*
X155575000Y-59690000D01*
X152400000Y-57785000D02*
X153035000Y-57150000D01*
X153035000Y-54665000D02*
X153090000Y-54610000D01*
X149860000Y-57785000D02*
X151765000Y-57785000D01*
X156845000Y-59690000D02*
X158170000Y-59690000D01*
X161290000Y-59690000D02*
X158170000Y-59690000D01*
X120650000Y-60960000D02*
X123825000Y-57785000D01*
X123825000Y-57785000D02*
X124460000Y-57785000D01*
X124460000Y-57785000D02*
X149860000Y-57785000D01*
X153090000Y-54610000D02*
X153090000Y-48110000D01*
X151765000Y-58420000D02*
X152400000Y-58420000D01*
X152400000Y-58420000D02*
X156210000Y-62230000D01*
X150495000Y-58420000D02*
X151765000Y-58420000D01*
X161290000Y-62230000D02*
X156210000Y-62230000D01*
X120650000Y-63500000D02*
X122555000Y-63500000D01*
X122555000Y-63500000D02*
X124460000Y-61595000D01*
X124460000Y-61595000D02*
X124460000Y-59690000D01*
X124460000Y-59690000D02*
X125730000Y-58420000D01*
X125730000Y-58420000D02*
X150495000Y-58420000D01*
X122555000Y-63500000D02*
X124460000Y-61595000D01*
X149860000Y-59055000D02*
X151130000Y-59055000D01*
X151130000Y-59055000D02*
X156845000Y-64770000D01*
X161290000Y-64770000D02*
X156845000Y-64770000D01*
X120650000Y-66040000D02*
X122555000Y-66040000D01*
X125730000Y-62865000D02*
X125730000Y-62230000D01*
X122555000Y-66040000D02*
X125730000Y-62865000D01*
X125730000Y-62230000D02*
X125730000Y-61595000D01*
X149860000Y-59055000D02*
X127000000Y-59055000D01*
X127000000Y-59055000D02*
X125730000Y-60325000D01*
X125730000Y-60325000D02*
X125730000Y-61595000D01*
X120650000Y-66040000D02*
X121285000Y-66040000D01*
X149860000Y-120650000D02*
X146050000Y-120650000D01*
X144780000Y-119380000D02*
X143510000Y-119380000D01*
X146050000Y-120650000D02*
X144780000Y-119380000D01*
X143510000Y-113030000D02*
X144780000Y-113030000D01*
X146050000Y-114300000D02*
X149860000Y-114300000D01*
X144780000Y-113030000D02*
X146050000Y-114300000D01*
X143510000Y-106680000D02*
X144780000Y-106680000D01*
X146050000Y-107950000D02*
X149860000Y-107950000D01*
X144780000Y-106680000D02*
X146050000Y-107950000D01*
X143510000Y-100330000D02*
X144780000Y-100330000D01*
X146050000Y-101600000D02*
X149860000Y-101600000D01*
X144780000Y-100330000D02*
X146050000Y-101600000D01*
X143510000Y-93980000D02*
X144780000Y-93980000D01*
X146050000Y-95250000D02*
X149860000Y-95250000D01*
X144780000Y-93980000D02*
X146050000Y-95250000D01*
X143510000Y-87630000D02*
X144780000Y-87630000D01*
X146050000Y-88900000D02*
X149860000Y-88900000D01*
X144780000Y-87630000D02*
X146050000Y-88900000D01*
X143510000Y-81280000D02*
X144780000Y-81280000D01*
X146050000Y-82550000D02*
X149860000Y-82550000D01*
X144780000Y-81280000D02*
X146050000Y-82550000D01*
X143510000Y-74930000D02*
X144780000Y-74930000D01*
X146050000Y-76200000D02*
X149860000Y-76200000D01*
X144780000Y-74930000D02*
X146050000Y-76200000D01*
X143510000Y-68580000D02*
X144780000Y-68580000D01*
X146050000Y-69850000D02*
X149860000Y-69850000D01*
X144780000Y-68580000D02*
X146050000Y-69850000D01*
X143510000Y-62230000D02*
X144780000Y-62230000D01*
X146050000Y-63500000D02*
X149860000Y-63500000D01*
X144780000Y-62230000D02*
X146050000Y-63500000D01*
D28*
X144740000Y-129530000D02*
X142250000Y-129530000D01*
X140990000Y-128270000D02*
X138430000Y-128270000D01*
X142250000Y-129530000D02*
X140990000Y-128270000D01*
D27*
X138430000Y-54610000D02*
X138430000Y-48110000D01*
D28*
X156210000Y-84210000D02*
X155965000Y-84210000D01*
X155965000Y-84210000D02*
X154305000Y-82550000D01*
X154305000Y-82550000D02*
X154305000Y-80645000D01*
X154305000Y-80645000D02*
X151765000Y-78105000D01*
X151765000Y-78105000D02*
X151765000Y-74930000D01*
X151765000Y-74930000D02*
X149860000Y-73025000D01*
X149860000Y-73025000D02*
X145415000Y-73025000D01*
X145415000Y-73025000D02*
X143510000Y-71120000D01*
X143510000Y-71120000D02*
X143510000Y-71330000D01*
X145415000Y-79375000D02*
X143510000Y-77470000D01*
X151130000Y-79375000D02*
X145415000Y-79375000D01*
X153035000Y-81280000D02*
X151130000Y-79375000D01*
X153035000Y-81280000D02*
X153035000Y-83820000D01*
X153035000Y-83820000D02*
X153670000Y-84455000D01*
X156210000Y-86995000D02*
X153670000Y-84455000D01*
X156210000Y-88410000D02*
X156210000Y-86995000D01*
X155475000Y-92610000D02*
X156210000Y-92610000D01*
X153035000Y-90170000D02*
X155475000Y-92610000D01*
X153035000Y-87630000D02*
X153035000Y-90170000D01*
X151130000Y-85725000D02*
X153035000Y-87630000D01*
X145415000Y-85725000D02*
X151130000Y-85725000D01*
X143510000Y-83820000D02*
X145415000Y-85725000D01*
X155575000Y-92610000D02*
X156210000Y-92610000D01*
X151475000Y-92075000D02*
X156210000Y-96810000D01*
X145415000Y-92075000D02*
X151475000Y-92075000D01*
X143510000Y-90170000D02*
X145415000Y-92075000D01*
X143510000Y-90170000D02*
X143510000Y-90330000D01*
X156165000Y-100965000D02*
X156210000Y-101010000D01*
X154305000Y-100965000D02*
X156165000Y-100965000D01*
X151765000Y-98425000D02*
X154305000Y-100965000D01*
X151130000Y-98425000D02*
X151765000Y-98425000D01*
X156165000Y-100965000D02*
X156210000Y-101010000D01*
X154305000Y-100965000D02*
X156165000Y-100965000D01*
X153035000Y-99695000D02*
X154305000Y-100965000D01*
X151765000Y-98425000D02*
X153035000Y-99695000D01*
X145415000Y-98425000D02*
X151130000Y-98425000D01*
X143510000Y-96520000D02*
X145415000Y-98425000D01*
X143510000Y-96520000D02*
X143510000Y-96830000D01*
X143510000Y-102870000D02*
X145415000Y-104775000D01*
X145415000Y-104775000D02*
X155775000Y-104775000D01*
X155775000Y-104775000D02*
X156210000Y-105210000D01*
X156210000Y-105210000D02*
X156010000Y-105210000D01*
X145415000Y-111125000D02*
X151765000Y-111125000D01*
X144780000Y-110490000D02*
X145415000Y-111125000D01*
X143510000Y-109220000D02*
X144780000Y-110490000D01*
X151765000Y-111125000D02*
X152400000Y-110490000D01*
X152400000Y-110490000D02*
X153670000Y-109220000D01*
X156020000Y-109220000D02*
X156210000Y-109410000D01*
X153670000Y-109220000D02*
X156020000Y-109220000D01*
X150495000Y-117475000D02*
X151130000Y-116840000D01*
X145415000Y-117475000D02*
X150495000Y-117475000D01*
X144780000Y-116840000D02*
X145415000Y-117475000D01*
X154360000Y-113610000D02*
X156210000Y-113610000D01*
X151130000Y-116840000D02*
X154360000Y-113610000D01*
X143510000Y-115570000D02*
X144780000Y-116840000D01*
X143510000Y-115830000D02*
X143510000Y-115570000D01*
X150195000Y-123825000D02*
X156210000Y-117810000D01*
X145415000Y-123825000D02*
X150195000Y-123825000D01*
X144780000Y-123190000D02*
X145415000Y-123825000D01*
X143510000Y-121920000D02*
X144780000Y-123190000D01*
X148590000Y-74930000D02*
X148590000Y-74590000D01*
X151765000Y-81915000D02*
X151765000Y-84455000D01*
X151765000Y-84455000D02*
X152400000Y-85090000D01*
X149225000Y-80645000D02*
X148590000Y-81280000D01*
X150495000Y-80645000D02*
X149225000Y-80645000D01*
X151765000Y-81915000D02*
X150495000Y-80645000D01*
X154305000Y-86995000D02*
X152400000Y-85090000D01*
X154305000Y-89535000D02*
X154305000Y-86995000D01*
X155575000Y-90805000D02*
X154305000Y-89535000D01*
X159385000Y-90805000D02*
X155575000Y-90805000D01*
X161190000Y-92610000D02*
X159385000Y-90805000D01*
X161710000Y-92610000D02*
X161190000Y-92610000D01*
X149225000Y-86995000D02*
X148590000Y-87630000D01*
X150495000Y-86995000D02*
X149225000Y-86995000D01*
X151765000Y-88265000D02*
X150495000Y-86995000D01*
X151765000Y-90805000D02*
X151765000Y-88265000D01*
X155575000Y-94615000D02*
X151765000Y-90805000D01*
X159385000Y-94615000D02*
X155575000Y-94615000D01*
X161580000Y-96810000D02*
X159385000Y-94615000D01*
X161710000Y-96810000D02*
X161580000Y-96810000D01*
X149225000Y-93345000D02*
X148590000Y-93980000D01*
X151130000Y-93345000D02*
X149225000Y-93345000D01*
X152400000Y-94615000D02*
X151130000Y-93345000D01*
X152400000Y-96520000D02*
X152400000Y-94615000D01*
X154940000Y-99060000D02*
X152400000Y-96520000D01*
X160020000Y-99060000D02*
X154940000Y-99060000D01*
X161710000Y-100750000D02*
X160020000Y-99060000D01*
X161710000Y-101010000D02*
X161710000Y-100750000D01*
X149225000Y-99695000D02*
X148590000Y-100330000D01*
X151130000Y-99695000D02*
X149225000Y-99695000D01*
X154305000Y-102870000D02*
X151130000Y-99695000D01*
X159385000Y-102870000D02*
X154305000Y-102870000D01*
X161710000Y-105195000D02*
X159385000Y-102870000D01*
X161710000Y-105210000D02*
X161710000Y-105195000D01*
X149225000Y-106045000D02*
X148590000Y-106680000D01*
X151765000Y-106045000D02*
X149225000Y-106045000D01*
X153035000Y-107315000D02*
X151765000Y-106045000D01*
X159385000Y-107315000D02*
X153035000Y-107315000D01*
X161480000Y-109410000D02*
X159385000Y-107315000D01*
X161710000Y-109410000D02*
X161480000Y-109410000D01*
X149225000Y-112395000D02*
X148590000Y-113030000D01*
X153035000Y-112395000D02*
X149225000Y-112395000D01*
X153670000Y-111760000D02*
X153035000Y-112395000D01*
X160020000Y-111760000D02*
X153670000Y-111760000D01*
X161710000Y-113450000D02*
X160020000Y-111760000D01*
X161710000Y-113610000D02*
X161710000Y-113450000D01*
X149225000Y-118745000D02*
X148590000Y-119380000D01*
X151765000Y-118745000D02*
X149225000Y-118745000D01*
X154940000Y-115570000D02*
X151765000Y-118745000D01*
X158750000Y-115570000D02*
X154940000Y-115570000D01*
X160990000Y-117810000D02*
X158750000Y-115570000D01*
X161710000Y-117810000D02*
X160990000Y-117810000D01*
X156210000Y-80010000D02*
X153670000Y-77470000D01*
X145415000Y-66675000D02*
X143510000Y-64770000D01*
X150495000Y-66675000D02*
X145415000Y-66675000D01*
X153670000Y-69850000D02*
X150495000Y-66675000D01*
X153670000Y-77470000D02*
X153670000Y-69850000D01*
X143510000Y-64770000D02*
X143950000Y-64770000D01*
X156362500Y-72390000D02*
X156362500Y-74662500D01*
X156362500Y-74662500D02*
X161710000Y-80010000D01*
X156362500Y-72390000D02*
X156362500Y-67310000D01*
X150495000Y-61595000D02*
X156362500Y-67462500D01*
X156210000Y-67310000D02*
X156362500Y-67310000D01*
X156362500Y-67462500D02*
X156210000Y-67310000D01*
X150495000Y-61595000D02*
X149225000Y-61595000D01*
X149225000Y-61595000D02*
X148590000Y-62230000D01*
X148590000Y-62230000D02*
X148590000Y-62090000D01*
D27*
X116205000Y-70485000D02*
X117475000Y-71755000D01*
X119380000Y-81280000D02*
X120650000Y-81280000D01*
X117475000Y-79375000D02*
X119380000Y-81280000D01*
X117475000Y-71755000D02*
X117475000Y-79375000D01*
X116205000Y-64135000D02*
X116205000Y-70485000D01*
X114300000Y-62230000D02*
X113665000Y-62230000D01*
X116205000Y-64135000D02*
X114300000Y-62230000D01*
X113665000Y-62230000D02*
X110490000Y-62230000D01*
X114305000Y-70485000D02*
X114305000Y-71760000D01*
X114305000Y-71760000D02*
X116205000Y-73660000D01*
X114300000Y-66040000D02*
X114300000Y-70480000D01*
X114300000Y-70480000D02*
X114305000Y-70485000D01*
X114300000Y-66040000D02*
X113665000Y-65405000D01*
X110490000Y-65405000D02*
X113665000Y-65405000D01*
X120650000Y-83820000D02*
X119380000Y-83820000D01*
X119380000Y-83820000D02*
X116205000Y-80645000D01*
X116205000Y-73660000D02*
X116205000Y-80645000D01*
M02*
