G04 #@! TF.FileFunction,Legend,Top*
%FSLAX46Y46*%
G04 Gerber Fmt 4.6, Leading zero omitted, Abs format (unit mm)*
G04 Created by KiCad (PCBNEW 4.0.3+e1-6302~38~ubuntu14.04.1-stable) date Fri Mar 24 19:53:49 2017*
%MOMM*%
%LPD*%
G01*
G04 APERTURE LIST*
%ADD10C,0.100000*%
%ADD11C,0.200000*%
%ADD12C,0.300000*%
%ADD13C,0.150000*%
%ADD14C,0.120000*%
G04 APERTURE END LIST*
D10*
D11*
X156845000Y-55880000D02*
X154940000Y-53975000D01*
X157480000Y-55880000D02*
X156845000Y-55880000D01*
X161290000Y-57150000D02*
X161290000Y-57785000D01*
X160655000Y-56515000D02*
X161290000Y-57150000D01*
X158559762Y-56377619D02*
X158193096Y-55853810D01*
X157931191Y-56377619D02*
X157931191Y-55277619D01*
X158350238Y-55277619D01*
X158455000Y-55330000D01*
X158507381Y-55382381D01*
X158559762Y-55487143D01*
X158559762Y-55644286D01*
X158507381Y-55749048D01*
X158455000Y-55801429D01*
X158350238Y-55853810D01*
X157931191Y-55853810D01*
X158978810Y-56325238D02*
X159135953Y-56377619D01*
X159397857Y-56377619D01*
X159502619Y-56325238D01*
X159555000Y-56272857D01*
X159607381Y-56168095D01*
X159607381Y-56063333D01*
X159555000Y-55958571D01*
X159502619Y-55906190D01*
X159397857Y-55853810D01*
X159188334Y-55801429D01*
X159083572Y-55749048D01*
X159031191Y-55696667D01*
X158978810Y-55591905D01*
X158978810Y-55487143D01*
X159031191Y-55382381D01*
X159083572Y-55330000D01*
X159188334Y-55277619D01*
X159450238Y-55277619D01*
X159607381Y-55330000D01*
X159921667Y-55277619D02*
X160550238Y-55277619D01*
X160235953Y-56377619D02*
X160235953Y-55277619D01*
X157027857Y-62727619D02*
X156661191Y-62203810D01*
X156399286Y-62727619D02*
X156399286Y-61627619D01*
X156818333Y-61627619D01*
X156923095Y-61680000D01*
X156975476Y-61732381D01*
X157027857Y-61837143D01*
X157027857Y-61994286D01*
X156975476Y-62099048D01*
X156923095Y-62151429D01*
X156818333Y-62203810D01*
X156399286Y-62203810D01*
X157394524Y-61627619D02*
X158127857Y-62727619D01*
X158127857Y-61627619D02*
X157394524Y-62727619D01*
X158546905Y-62727619D02*
X158546905Y-61627619D01*
X158808810Y-61627619D01*
X158965952Y-61680000D01*
X159070714Y-61784762D01*
X159123095Y-61889524D01*
X159175476Y-62099048D01*
X159175476Y-62256190D01*
X159123095Y-62465714D01*
X159070714Y-62570476D01*
X158965952Y-62675238D01*
X158808810Y-62727619D01*
X158546905Y-62727619D01*
X156504048Y-64167619D02*
X157132619Y-64167619D01*
X156818334Y-65267619D02*
X156818334Y-64167619D01*
X157394524Y-64167619D02*
X158127857Y-65267619D01*
X158127857Y-64167619D02*
X157394524Y-65267619D01*
X158546905Y-65267619D02*
X158546905Y-64167619D01*
X158808810Y-64167619D01*
X158965952Y-64220000D01*
X159070714Y-64324762D01*
X159123095Y-64429524D01*
X159175476Y-64639048D01*
X159175476Y-64796190D01*
X159123095Y-65005714D01*
X159070714Y-65110476D01*
X158965952Y-65215238D01*
X158808810Y-65267619D01*
X158546905Y-65267619D01*
X156346905Y-67755238D02*
X156504048Y-67807619D01*
X156765952Y-67807619D01*
X156870714Y-67755238D01*
X156923095Y-67702857D01*
X156975476Y-67598095D01*
X156975476Y-67493333D01*
X156923095Y-67388571D01*
X156870714Y-67336190D01*
X156765952Y-67283810D01*
X156556429Y-67231429D01*
X156451667Y-67179048D01*
X156399286Y-67126667D01*
X156346905Y-67021905D01*
X156346905Y-66917143D01*
X156399286Y-66812381D01*
X156451667Y-66760000D01*
X156556429Y-66707619D01*
X156818333Y-66707619D01*
X156975476Y-66760000D01*
X158075476Y-67702857D02*
X158023095Y-67755238D01*
X157865952Y-67807619D01*
X157761190Y-67807619D01*
X157604048Y-67755238D01*
X157499286Y-67650476D01*
X157446905Y-67545714D01*
X157394524Y-67336190D01*
X157394524Y-67179048D01*
X157446905Y-66969524D01*
X157499286Y-66864762D01*
X157604048Y-66760000D01*
X157761190Y-66707619D01*
X157865952Y-66707619D01*
X158023095Y-66760000D01*
X158075476Y-66812381D01*
X158546905Y-67807619D02*
X158546905Y-66707619D01*
X159175476Y-67807619D02*
X158704048Y-67179048D01*
X159175476Y-66707619D02*
X158546905Y-67336190D01*
X155665952Y-70347619D02*
X155665952Y-69247619D01*
X156032618Y-70033333D01*
X156399285Y-69247619D01*
X156399285Y-70347619D01*
X156923095Y-70347619D02*
X156923095Y-69247619D01*
X157394524Y-70295238D02*
X157551667Y-70347619D01*
X157813571Y-70347619D01*
X157918333Y-70295238D01*
X157970714Y-70242857D01*
X158023095Y-70138095D01*
X158023095Y-70033333D01*
X157970714Y-69928571D01*
X157918333Y-69876190D01*
X157813571Y-69823810D01*
X157604048Y-69771429D01*
X157499286Y-69719048D01*
X157446905Y-69666667D01*
X157394524Y-69561905D01*
X157394524Y-69457143D01*
X157446905Y-69352381D01*
X157499286Y-69300000D01*
X157604048Y-69247619D01*
X157865952Y-69247619D01*
X158023095Y-69300000D01*
X158704048Y-69247619D02*
X158913571Y-69247619D01*
X159018333Y-69300000D01*
X159123095Y-69404762D01*
X159175476Y-69614286D01*
X159175476Y-69980952D01*
X159123095Y-70190476D01*
X159018333Y-70295238D01*
X158913571Y-70347619D01*
X158704048Y-70347619D01*
X158599286Y-70295238D01*
X158494524Y-70190476D01*
X158442143Y-69980952D01*
X158442143Y-69614286D01*
X158494524Y-69404762D01*
X158599286Y-69300000D01*
X158704048Y-69247619D01*
X155665952Y-72887619D02*
X155665952Y-71787619D01*
X156032618Y-72573333D01*
X156399285Y-71787619D01*
X156399285Y-72887619D01*
X157132619Y-71787619D02*
X157342142Y-71787619D01*
X157446904Y-71840000D01*
X157551666Y-71944762D01*
X157604047Y-72154286D01*
X157604047Y-72520952D01*
X157551666Y-72730476D01*
X157446904Y-72835238D01*
X157342142Y-72887619D01*
X157132619Y-72887619D01*
X157027857Y-72835238D01*
X156923095Y-72730476D01*
X156870714Y-72520952D01*
X156870714Y-72154286D01*
X156923095Y-71944762D01*
X157027857Y-71840000D01*
X157132619Y-71787619D01*
X158023095Y-72835238D02*
X158180238Y-72887619D01*
X158442142Y-72887619D01*
X158546904Y-72835238D01*
X158599285Y-72782857D01*
X158651666Y-72678095D01*
X158651666Y-72573333D01*
X158599285Y-72468571D01*
X158546904Y-72416190D01*
X158442142Y-72363810D01*
X158232619Y-72311429D01*
X158127857Y-72259048D01*
X158075476Y-72206667D01*
X158023095Y-72101905D01*
X158023095Y-71997143D01*
X158075476Y-71892381D01*
X158127857Y-71840000D01*
X158232619Y-71787619D01*
X158494523Y-71787619D01*
X158651666Y-71840000D01*
X159123095Y-72887619D02*
X159123095Y-71787619D01*
D12*
X144208572Y-124567143D02*
X145351429Y-124567143D01*
X144780000Y-125138571D02*
X144780000Y-123995714D01*
X149288572Y-124567143D02*
X150431429Y-124567143D01*
X161932857Y-121357143D02*
X161932857Y-122500000D01*
X155932857Y-121357143D02*
X155932857Y-122500000D01*
X155361429Y-121928571D02*
X156504286Y-121928571D01*
X158361429Y-75285714D02*
X159861429Y-75285714D01*
X158361429Y-75928571D02*
X159147143Y-75928571D01*
X159290000Y-75857142D01*
X159361429Y-75714285D01*
X159361429Y-75500000D01*
X159290000Y-75357142D01*
X159218571Y-75285714D01*
X158361429Y-76642857D02*
X159361429Y-76642857D01*
X159861429Y-76642857D02*
X159790000Y-76571428D01*
X159718571Y-76642857D01*
X159790000Y-76714285D01*
X159861429Y-76642857D01*
X159718571Y-76642857D01*
X158361429Y-121571429D02*
X158432857Y-121428571D01*
X158575714Y-121357143D01*
X159861429Y-121357143D01*
X158361429Y-122357143D02*
X158432857Y-122214285D01*
X158504286Y-122142857D01*
X158647143Y-122071428D01*
X159075714Y-122071428D01*
X159218571Y-122142857D01*
X159290000Y-122214285D01*
X159361429Y-122357143D01*
X159361429Y-122571428D01*
X159290000Y-122714285D01*
X159218571Y-122785714D01*
X159075714Y-122857143D01*
X158647143Y-122857143D01*
X158504286Y-122785714D01*
X158432857Y-122714285D01*
X158361429Y-122571428D01*
X158361429Y-122357143D01*
D11*
X145022143Y-49091191D02*
X144969762Y-49038810D01*
X144917381Y-48881667D01*
X144917381Y-48776905D01*
X144969762Y-48619763D01*
X145074524Y-48515001D01*
X145179286Y-48462620D01*
X145388810Y-48410239D01*
X145545952Y-48410239D01*
X145755476Y-48462620D01*
X145860238Y-48515001D01*
X145965000Y-48619763D01*
X146017381Y-48776905D01*
X146017381Y-48881667D01*
X145965000Y-49038810D01*
X145912619Y-49091191D01*
X146017381Y-49405477D02*
X146017381Y-50034048D01*
X144917381Y-49719763D02*
X146017381Y-49719763D01*
X144917381Y-51029286D02*
X145441190Y-50662620D01*
X144917381Y-50400715D02*
X146017381Y-50400715D01*
X146017381Y-50819762D01*
X145965000Y-50924524D01*
X145912619Y-50976905D01*
X145807857Y-51029286D01*
X145650714Y-51029286D01*
X145545952Y-50976905D01*
X145493571Y-50924524D01*
X145441190Y-50819762D01*
X145441190Y-50400715D01*
X144917381Y-52024524D02*
X144917381Y-51500715D01*
X146017381Y-51500715D01*
D12*
X131645002Y-57955714D02*
X131502144Y-57884286D01*
X131216430Y-57884286D01*
X131073573Y-57955714D01*
X130930716Y-58098571D01*
X130859287Y-58241429D01*
X130859287Y-58527143D01*
X130930716Y-58670000D01*
X131073573Y-58812857D01*
X131216430Y-58884286D01*
X131502144Y-58884286D01*
X131645002Y-58812857D01*
X131359287Y-57384286D02*
X131002144Y-57455714D01*
X130645002Y-57670000D01*
X130430716Y-58027143D01*
X130359287Y-58384286D01*
X130430716Y-58741429D01*
X130645002Y-59098571D01*
X131002144Y-59312857D01*
X131359287Y-59384286D01*
X131716430Y-59312857D01*
X132073573Y-59098571D01*
X132287859Y-58741429D01*
X132359287Y-58384286D01*
X132287859Y-58027143D01*
X132073573Y-57670000D01*
X131716430Y-57455714D01*
X131359287Y-57384286D01*
X134145002Y-59098571D02*
X134145002Y-57598571D01*
X134502145Y-57598571D01*
X134716430Y-57670000D01*
X134859288Y-57812857D01*
X134930716Y-57955714D01*
X135002145Y-58241429D01*
X135002145Y-58455714D01*
X134930716Y-58741429D01*
X134859288Y-58884286D01*
X134716430Y-59027143D01*
X134502145Y-59098571D01*
X134145002Y-59098571D01*
X136287859Y-59098571D02*
X136287859Y-58312857D01*
X136216430Y-58170000D01*
X136073573Y-58098571D01*
X135787859Y-58098571D01*
X135645002Y-58170000D01*
X136287859Y-59027143D02*
X136145002Y-59098571D01*
X135787859Y-59098571D01*
X135645002Y-59027143D01*
X135573573Y-58884286D01*
X135573573Y-58741429D01*
X135645002Y-58598571D01*
X135787859Y-58527143D01*
X136145002Y-58527143D01*
X136287859Y-58455714D01*
X137645002Y-59098571D02*
X137645002Y-58312857D01*
X137573573Y-58170000D01*
X137430716Y-58098571D01*
X137145002Y-58098571D01*
X137002145Y-58170000D01*
X137645002Y-59027143D02*
X137502145Y-59098571D01*
X137145002Y-59098571D01*
X137002145Y-59027143D01*
X136930716Y-58884286D01*
X136930716Y-58741429D01*
X137002145Y-58598571D01*
X137145002Y-58527143D01*
X137502145Y-58527143D01*
X137645002Y-58455714D01*
X138359288Y-58098571D02*
X138359288Y-59098571D01*
X138359288Y-58241429D02*
X138430716Y-58170000D01*
X138573574Y-58098571D01*
X138787859Y-58098571D01*
X138930716Y-58170000D01*
X139002145Y-58312857D01*
X139002145Y-59098571D01*
X140787859Y-59027143D02*
X141002145Y-59098571D01*
X141359288Y-59098571D01*
X141502145Y-59027143D01*
X141573574Y-58955714D01*
X141645002Y-58812857D01*
X141645002Y-58670000D01*
X141573574Y-58527143D01*
X141502145Y-58455714D01*
X141359288Y-58384286D01*
X141073574Y-58312857D01*
X140930716Y-58241429D01*
X140859288Y-58170000D01*
X140787859Y-58027143D01*
X140787859Y-57884286D01*
X140859288Y-57741429D01*
X140930716Y-57670000D01*
X141073574Y-57598571D01*
X141430716Y-57598571D01*
X141645002Y-57670000D01*
X142287859Y-58098571D02*
X142287859Y-59598571D01*
X142287859Y-58170000D02*
X142430716Y-58098571D01*
X142716430Y-58098571D01*
X142859287Y-58170000D01*
X142930716Y-58241429D01*
X143002145Y-58384286D01*
X143002145Y-58812857D01*
X142930716Y-58955714D01*
X142859287Y-59027143D01*
X142716430Y-59098571D01*
X142430716Y-59098571D01*
X142287859Y-59027143D01*
X143645002Y-59098571D02*
X143645002Y-58098571D01*
X143645002Y-58384286D02*
X143716430Y-58241429D01*
X143787859Y-58170000D01*
X143930716Y-58098571D01*
X144073573Y-58098571D01*
X145145001Y-59027143D02*
X145002144Y-59098571D01*
X144716430Y-59098571D01*
X144573573Y-59027143D01*
X144502144Y-58884286D01*
X144502144Y-58312857D01*
X144573573Y-58170000D01*
X144716430Y-58098571D01*
X145002144Y-58098571D01*
X145145001Y-58170000D01*
X145216430Y-58312857D01*
X145216430Y-58455714D01*
X144502144Y-58598571D01*
X145859287Y-58098571D02*
X145859287Y-59098571D01*
X145859287Y-58241429D02*
X145930715Y-58170000D01*
X146073573Y-58098571D01*
X146287858Y-58098571D01*
X146430715Y-58170000D01*
X146502144Y-58312857D01*
X146502144Y-59098571D01*
X147216430Y-59098571D02*
X147216430Y-57598571D01*
X147359287Y-58527143D02*
X147787858Y-59098571D01*
X147787858Y-58098571D02*
X147216430Y-58670000D01*
X149002144Y-59027143D02*
X148859287Y-59098571D01*
X148573573Y-59098571D01*
X148430716Y-59027143D01*
X148359287Y-58884286D01*
X148359287Y-58312857D01*
X148430716Y-58170000D01*
X148573573Y-58098571D01*
X148859287Y-58098571D01*
X149002144Y-58170000D01*
X149073573Y-58312857D01*
X149073573Y-58455714D01*
X148359287Y-58598571D01*
X149930716Y-59098571D02*
X149787858Y-59027143D01*
X149716430Y-58884286D01*
X149716430Y-57598571D01*
X150430715Y-59027143D02*
X150573572Y-59098571D01*
X150859287Y-59098571D01*
X151002144Y-59027143D01*
X151073572Y-58884286D01*
X151073572Y-58812857D01*
X151002144Y-58670000D01*
X150859287Y-58598571D01*
X150645001Y-58598571D01*
X150502144Y-58527143D01*
X150430715Y-58384286D01*
X150430715Y-58312857D01*
X150502144Y-58170000D01*
X150645001Y-58098571D01*
X150859287Y-58098571D01*
X151002144Y-58170000D01*
X152787858Y-57741429D02*
X152859287Y-57670000D01*
X153002144Y-57598571D01*
X153359287Y-57598571D01*
X153502144Y-57670000D01*
X153573573Y-57741429D01*
X153645001Y-57884286D01*
X153645001Y-58027143D01*
X153573573Y-58241429D01*
X152716430Y-59098571D01*
X153645001Y-59098571D01*
X154573572Y-57598571D02*
X154716429Y-57598571D01*
X154859286Y-57670000D01*
X154930715Y-57741429D01*
X155002144Y-57884286D01*
X155073572Y-58170000D01*
X155073572Y-58527143D01*
X155002144Y-58812857D01*
X154930715Y-58955714D01*
X154859286Y-59027143D01*
X154716429Y-59098571D01*
X154573572Y-59098571D01*
X154430715Y-59027143D01*
X154359286Y-58955714D01*
X154287858Y-58812857D01*
X154216429Y-58527143D01*
X154216429Y-58170000D01*
X154287858Y-57884286D01*
X154359286Y-57741429D01*
X154430715Y-57670000D01*
X154573572Y-57598571D01*
X156502143Y-59098571D02*
X155645000Y-59098571D01*
X156073572Y-59098571D02*
X156073572Y-57598571D01*
X155930715Y-57812857D01*
X155787857Y-57955714D01*
X155645000Y-58027143D01*
X157002143Y-57598571D02*
X158002143Y-57598571D01*
X157359286Y-59098571D01*
D13*
X153217619Y-127230476D02*
X154217619Y-127230476D01*
X154217619Y-127611429D01*
X154170000Y-127706667D01*
X154122381Y-127754286D01*
X154027143Y-127801905D01*
X153884286Y-127801905D01*
X153789048Y-127754286D01*
X153741429Y-127706667D01*
X153693810Y-127611429D01*
X153693810Y-127230476D01*
X154217619Y-128420952D02*
X154217619Y-128611429D01*
X154170000Y-128706667D01*
X154074762Y-128801905D01*
X153884286Y-128849524D01*
X153550952Y-128849524D01*
X153360476Y-128801905D01*
X153265238Y-128706667D01*
X153217619Y-128611429D01*
X153217619Y-128420952D01*
X153265238Y-128325714D01*
X153360476Y-128230476D01*
X153550952Y-128182857D01*
X153884286Y-128182857D01*
X154074762Y-128230476D01*
X154170000Y-128325714D01*
X154217619Y-128420952D01*
X154217619Y-129182857D02*
X153217619Y-129420952D01*
X153931905Y-129611429D01*
X153217619Y-129801905D01*
X154217619Y-130040000D01*
X153741429Y-130420952D02*
X153741429Y-130754286D01*
X153217619Y-130897143D02*
X153217619Y-130420952D01*
X154217619Y-130420952D01*
X154217619Y-130897143D01*
X153217619Y-131897143D02*
X153693810Y-131563809D01*
X153217619Y-131325714D02*
X154217619Y-131325714D01*
X154217619Y-131706667D01*
X154170000Y-131801905D01*
X154122381Y-131849524D01*
X154027143Y-131897143D01*
X153884286Y-131897143D01*
X153789048Y-131849524D01*
X153741429Y-131801905D01*
X153693810Y-131706667D01*
X153693810Y-131325714D01*
D14*
X111800000Y-96610000D02*
X111800000Y-101430000D01*
X109180000Y-96610000D02*
X109180000Y-101430000D01*
X111800000Y-96610000D02*
X111486000Y-96610000D01*
X109494000Y-96610000D02*
X109180000Y-96610000D01*
X111800000Y-101430000D02*
X111486000Y-101430000D01*
X109494000Y-101430000D02*
X109180000Y-101430000D01*
D13*
X109475000Y-124300000D02*
X109475000Y-121300000D01*
X109500925Y-121255367D02*
G75*
G03X109475000Y-107300000I-12025925J6955367D01*
G01*
X109475000Y-104300000D02*
X109475000Y-107300000D01*
X109475000Y-124300000D02*
X125475000Y-124300000D01*
X125475000Y-104300000D02*
X109475000Y-104300000D01*
X125475000Y-124300000D02*
X125475000Y-104300000D01*
D14*
X107910000Y-89020000D02*
X118150000Y-89020000D01*
X107910000Y-73130000D02*
X118150000Y-73130000D01*
X107910000Y-73130000D02*
X107910000Y-89020000D01*
X118150000Y-73130000D02*
X118150000Y-89020000D01*
X110490000Y-89020000D02*
X110490000Y-91660000D01*
X113030000Y-89020000D02*
X113030000Y-91644000D01*
X115570000Y-89020000D02*
X115570000Y-91644000D01*
X154090000Y-53610000D02*
X154090000Y-49110000D01*
X150090000Y-54860000D02*
X151590000Y-54860000D01*
X147590000Y-49110000D02*
X147590000Y-53610000D01*
X151590000Y-47860000D02*
X150090000Y-47860000D01*
D13*
X140065000Y-128320000D02*
G75*
G03X140065000Y-128320000I-4175000J0D01*
G01*
D14*
X125460000Y-59570000D02*
G75*
G02X123460000Y-59570000I-1000000J0D01*
G01*
X123460000Y-59570000D02*
X121690000Y-59570000D01*
X121690000Y-59570000D02*
X121690000Y-95370000D01*
X121690000Y-95370000D02*
X127230000Y-95370000D01*
X127230000Y-95370000D02*
X127230000Y-59570000D01*
X127230000Y-59570000D02*
X125460000Y-59570000D01*
X143930000Y-53610000D02*
X143930000Y-49110000D01*
X139930000Y-54860000D02*
X141430000Y-54860000D01*
X137430000Y-49110000D02*
X137430000Y-53610000D01*
X141430000Y-47860000D02*
X139930000Y-47860000D01*
X146740000Y-118850000D02*
X146740000Y-122450000D01*
X146751522Y-118811522D02*
G75*
G02X151190000Y-120650000I1838478J-1838478D01*
G01*
X146751522Y-122488478D02*
G75*
G03X151190000Y-120650000I1838478J1838478D01*
G01*
X124880635Y-127000000D02*
G75*
G03X124880635Y-127000000I-1690635J0D01*
G01*
X126579365Y-127000000D02*
X124590000Y-127000000D01*
X126322667Y-127889000D02*
X126322667Y-126111000D01*
X126322667Y-127000000D02*
X125137333Y-127889000D01*
X125137333Y-127889000D02*
X125137333Y-126111000D01*
X125137333Y-126111000D02*
X126322667Y-127000000D01*
X131042665Y-55688608D02*
G75*
G03X134275000Y-55845516I1672335J1078608D01*
G01*
X131042665Y-53531392D02*
G75*
G02X134275000Y-53374484I1672335J-1078608D01*
G01*
X131673870Y-55689837D02*
G75*
G03X133755961Y-55690000I1041130J1079837D01*
G01*
X131673870Y-53530163D02*
G75*
G02X133755961Y-53530000I1041130J-1079837D01*
G01*
X134275000Y-55846000D02*
X134275000Y-55690000D01*
X134275000Y-53530000D02*
X134275000Y-53374000D01*
X146740000Y-112500000D02*
X146740000Y-116100000D01*
X146751522Y-112461522D02*
G75*
G02X151190000Y-114300000I1838478J-1838478D01*
G01*
X146751522Y-116138478D02*
G75*
G03X151190000Y-114300000I1838478J1838478D01*
G01*
X146740000Y-106150000D02*
X146740000Y-109750000D01*
X146751522Y-106111522D02*
G75*
G02X151190000Y-107950000I1838478J-1838478D01*
G01*
X146751522Y-109788478D02*
G75*
G03X151190000Y-107950000I1838478J1838478D01*
G01*
X146740000Y-99800000D02*
X146740000Y-103400000D01*
X146751522Y-99761522D02*
G75*
G02X151190000Y-101600000I1838478J-1838478D01*
G01*
X146751522Y-103438478D02*
G75*
G03X151190000Y-101600000I1838478J1838478D01*
G01*
X146740000Y-93450000D02*
X146740000Y-97050000D01*
X146751522Y-93411522D02*
G75*
G02X151190000Y-95250000I1838478J-1838478D01*
G01*
X146751522Y-97088478D02*
G75*
G03X151190000Y-95250000I1838478J1838478D01*
G01*
X146740000Y-87100000D02*
X146740000Y-90700000D01*
X146751522Y-87061522D02*
G75*
G02X151190000Y-88900000I1838478J-1838478D01*
G01*
X146751522Y-90738478D02*
G75*
G03X151190000Y-88900000I1838478J1838478D01*
G01*
X146740000Y-80750000D02*
X146740000Y-84350000D01*
X146751522Y-80711522D02*
G75*
G02X151190000Y-82550000I1838478J-1838478D01*
G01*
X146751522Y-84388478D02*
G75*
G03X151190000Y-82550000I1838478J1838478D01*
G01*
X146740000Y-74400000D02*
X146740000Y-78000000D01*
X146751522Y-74361522D02*
G75*
G02X151190000Y-76200000I1838478J-1838478D01*
G01*
X146751522Y-78038478D02*
G75*
G03X151190000Y-76200000I1838478J1838478D01*
G01*
X146740000Y-68050000D02*
X146740000Y-71650000D01*
X146751522Y-68011522D02*
G75*
G02X151190000Y-69850000I1838478J-1838478D01*
G01*
X146751522Y-71688478D02*
G75*
G03X151190000Y-69850000I1838478J1838478D01*
G01*
X146740000Y-61700000D02*
X146740000Y-65300000D01*
X146751522Y-61661522D02*
G75*
G02X151190000Y-63500000I1838478J-1838478D01*
G01*
X146751522Y-65338478D02*
G75*
G03X151190000Y-63500000I1838478J1838478D01*
G01*
D13*
X126365000Y-54610000D02*
X125349000Y-54610000D01*
X125349000Y-54610000D02*
X125349000Y-55626000D01*
X125349000Y-55626000D02*
X117221000Y-55626000D01*
X117221000Y-55626000D02*
X117221000Y-53594000D01*
X117221000Y-53594000D02*
X125349000Y-53594000D01*
X125349000Y-53594000D02*
X125349000Y-54610000D01*
X125349000Y-55118000D02*
X124841000Y-55626000D01*
X116205000Y-54610000D02*
X117221000Y-54610000D01*
X126365000Y-51435000D02*
X125349000Y-51435000D01*
X125349000Y-51435000D02*
X125349000Y-52451000D01*
X125349000Y-52451000D02*
X117221000Y-52451000D01*
X117221000Y-52451000D02*
X117221000Y-50419000D01*
X117221000Y-50419000D02*
X125349000Y-50419000D01*
X125349000Y-50419000D02*
X125349000Y-51435000D01*
X125349000Y-51943000D02*
X124841000Y-52451000D01*
X116205000Y-51435000D02*
X117221000Y-51435000D01*
X133350000Y-121920000D02*
X134366000Y-121920000D01*
X134366000Y-121920000D02*
X134366000Y-120904000D01*
X134366000Y-120904000D02*
X142494000Y-120904000D01*
X142494000Y-120904000D02*
X142494000Y-122936000D01*
X142494000Y-122936000D02*
X134366000Y-122936000D01*
X134366000Y-122936000D02*
X134366000Y-121920000D01*
X134366000Y-121412000D02*
X134874000Y-120904000D01*
X143510000Y-121920000D02*
X142494000Y-121920000D01*
X133350000Y-115570000D02*
X134366000Y-115570000D01*
X134366000Y-115570000D02*
X134366000Y-114554000D01*
X134366000Y-114554000D02*
X142494000Y-114554000D01*
X142494000Y-114554000D02*
X142494000Y-116586000D01*
X142494000Y-116586000D02*
X134366000Y-116586000D01*
X134366000Y-116586000D02*
X134366000Y-115570000D01*
X134366000Y-115062000D02*
X134874000Y-114554000D01*
X143510000Y-115570000D02*
X142494000Y-115570000D01*
X133350000Y-109220000D02*
X134366000Y-109220000D01*
X134366000Y-109220000D02*
X134366000Y-108204000D01*
X134366000Y-108204000D02*
X142494000Y-108204000D01*
X142494000Y-108204000D02*
X142494000Y-110236000D01*
X142494000Y-110236000D02*
X134366000Y-110236000D01*
X134366000Y-110236000D02*
X134366000Y-109220000D01*
X134366000Y-108712000D02*
X134874000Y-108204000D01*
X143510000Y-109220000D02*
X142494000Y-109220000D01*
X133350000Y-102870000D02*
X134366000Y-102870000D01*
X134366000Y-102870000D02*
X134366000Y-101854000D01*
X134366000Y-101854000D02*
X142494000Y-101854000D01*
X142494000Y-101854000D02*
X142494000Y-103886000D01*
X142494000Y-103886000D02*
X134366000Y-103886000D01*
X134366000Y-103886000D02*
X134366000Y-102870000D01*
X134366000Y-102362000D02*
X134874000Y-101854000D01*
X143510000Y-102870000D02*
X142494000Y-102870000D01*
X133350000Y-96520000D02*
X134366000Y-96520000D01*
X134366000Y-96520000D02*
X134366000Y-95504000D01*
X134366000Y-95504000D02*
X142494000Y-95504000D01*
X142494000Y-95504000D02*
X142494000Y-97536000D01*
X142494000Y-97536000D02*
X134366000Y-97536000D01*
X134366000Y-97536000D02*
X134366000Y-96520000D01*
X134366000Y-96012000D02*
X134874000Y-95504000D01*
X143510000Y-96520000D02*
X142494000Y-96520000D01*
X133350000Y-90170000D02*
X134366000Y-90170000D01*
X134366000Y-90170000D02*
X134366000Y-89154000D01*
X134366000Y-89154000D02*
X142494000Y-89154000D01*
X142494000Y-89154000D02*
X142494000Y-91186000D01*
X142494000Y-91186000D02*
X134366000Y-91186000D01*
X134366000Y-91186000D02*
X134366000Y-90170000D01*
X134366000Y-89662000D02*
X134874000Y-89154000D01*
X143510000Y-90170000D02*
X142494000Y-90170000D01*
X133350000Y-83820000D02*
X134366000Y-83820000D01*
X134366000Y-83820000D02*
X134366000Y-82804000D01*
X134366000Y-82804000D02*
X142494000Y-82804000D01*
X142494000Y-82804000D02*
X142494000Y-84836000D01*
X142494000Y-84836000D02*
X134366000Y-84836000D01*
X134366000Y-84836000D02*
X134366000Y-83820000D01*
X134366000Y-83312000D02*
X134874000Y-82804000D01*
X143510000Y-83820000D02*
X142494000Y-83820000D01*
X133350000Y-77470000D02*
X134366000Y-77470000D01*
X134366000Y-77470000D02*
X134366000Y-76454000D01*
X134366000Y-76454000D02*
X142494000Y-76454000D01*
X142494000Y-76454000D02*
X142494000Y-78486000D01*
X142494000Y-78486000D02*
X134366000Y-78486000D01*
X134366000Y-78486000D02*
X134366000Y-77470000D01*
X134366000Y-76962000D02*
X134874000Y-76454000D01*
X143510000Y-77470000D02*
X142494000Y-77470000D01*
X133350000Y-71120000D02*
X134366000Y-71120000D01*
X134366000Y-71120000D02*
X134366000Y-70104000D01*
X134366000Y-70104000D02*
X142494000Y-70104000D01*
X142494000Y-70104000D02*
X142494000Y-72136000D01*
X142494000Y-72136000D02*
X134366000Y-72136000D01*
X134366000Y-72136000D02*
X134366000Y-71120000D01*
X134366000Y-70612000D02*
X134874000Y-70104000D01*
X143510000Y-71120000D02*
X142494000Y-71120000D01*
X133350000Y-64770000D02*
X134366000Y-64770000D01*
X134366000Y-64770000D02*
X134366000Y-63754000D01*
X134366000Y-63754000D02*
X142494000Y-63754000D01*
X142494000Y-63754000D02*
X142494000Y-65786000D01*
X142494000Y-65786000D02*
X134366000Y-65786000D01*
X134366000Y-65786000D02*
X134366000Y-64770000D01*
X134366000Y-64262000D02*
X134874000Y-63754000D01*
X143510000Y-64770000D02*
X142494000Y-64770000D01*
D14*
X116955000Y-68185000D02*
X116955000Y-59785000D01*
X116955000Y-59785000D02*
X113555000Y-59785000D01*
X113555000Y-59785000D02*
X113555000Y-68185000D01*
X113555000Y-68185000D02*
X116955000Y-68185000D01*
X115800000Y-68185000D02*
X116205000Y-69335000D01*
X116205000Y-69335000D02*
X116205000Y-69785000D01*
X114710000Y-68185000D02*
X114305000Y-69335000D01*
X114305000Y-69335000D02*
X114305000Y-69785000D01*
D13*
X133350000Y-119380000D02*
X134366000Y-119380000D01*
X134366000Y-119380000D02*
X134366000Y-118364000D01*
X134366000Y-118364000D02*
X142494000Y-118364000D01*
X142494000Y-118364000D02*
X142494000Y-120396000D01*
X142494000Y-120396000D02*
X134366000Y-120396000D01*
X134366000Y-120396000D02*
X134366000Y-119380000D01*
X134366000Y-118872000D02*
X134874000Y-118364000D01*
X143510000Y-119380000D02*
X142494000Y-119380000D01*
X133350000Y-113030000D02*
X134366000Y-113030000D01*
X134366000Y-113030000D02*
X134366000Y-112014000D01*
X134366000Y-112014000D02*
X142494000Y-112014000D01*
X142494000Y-112014000D02*
X142494000Y-114046000D01*
X142494000Y-114046000D02*
X134366000Y-114046000D01*
X134366000Y-114046000D02*
X134366000Y-113030000D01*
X134366000Y-112522000D02*
X134874000Y-112014000D01*
X143510000Y-113030000D02*
X142494000Y-113030000D01*
X133350000Y-106680000D02*
X134366000Y-106680000D01*
X134366000Y-106680000D02*
X134366000Y-105664000D01*
X134366000Y-105664000D02*
X142494000Y-105664000D01*
X142494000Y-105664000D02*
X142494000Y-107696000D01*
X142494000Y-107696000D02*
X134366000Y-107696000D01*
X134366000Y-107696000D02*
X134366000Y-106680000D01*
X134366000Y-106172000D02*
X134874000Y-105664000D01*
X143510000Y-106680000D02*
X142494000Y-106680000D01*
X133350000Y-100330000D02*
X134366000Y-100330000D01*
X134366000Y-100330000D02*
X134366000Y-99314000D01*
X134366000Y-99314000D02*
X142494000Y-99314000D01*
X142494000Y-99314000D02*
X142494000Y-101346000D01*
X142494000Y-101346000D02*
X134366000Y-101346000D01*
X134366000Y-101346000D02*
X134366000Y-100330000D01*
X134366000Y-99822000D02*
X134874000Y-99314000D01*
X143510000Y-100330000D02*
X142494000Y-100330000D01*
X133350000Y-93980000D02*
X134366000Y-93980000D01*
X134366000Y-93980000D02*
X134366000Y-92964000D01*
X134366000Y-92964000D02*
X142494000Y-92964000D01*
X142494000Y-92964000D02*
X142494000Y-94996000D01*
X142494000Y-94996000D02*
X134366000Y-94996000D01*
X134366000Y-94996000D02*
X134366000Y-93980000D01*
X134366000Y-93472000D02*
X134874000Y-92964000D01*
X143510000Y-93980000D02*
X142494000Y-93980000D01*
X133350000Y-87630000D02*
X134366000Y-87630000D01*
X134366000Y-87630000D02*
X134366000Y-86614000D01*
X134366000Y-86614000D02*
X142494000Y-86614000D01*
X142494000Y-86614000D02*
X142494000Y-88646000D01*
X142494000Y-88646000D02*
X134366000Y-88646000D01*
X134366000Y-88646000D02*
X134366000Y-87630000D01*
X134366000Y-87122000D02*
X134874000Y-86614000D01*
X143510000Y-87630000D02*
X142494000Y-87630000D01*
X133350000Y-81280000D02*
X134366000Y-81280000D01*
X134366000Y-81280000D02*
X134366000Y-80264000D01*
X134366000Y-80264000D02*
X142494000Y-80264000D01*
X142494000Y-80264000D02*
X142494000Y-82296000D01*
X142494000Y-82296000D02*
X134366000Y-82296000D01*
X134366000Y-82296000D02*
X134366000Y-81280000D01*
X134366000Y-80772000D02*
X134874000Y-80264000D01*
X143510000Y-81280000D02*
X142494000Y-81280000D01*
X133350000Y-74930000D02*
X134366000Y-74930000D01*
X134366000Y-74930000D02*
X134366000Y-73914000D01*
X134366000Y-73914000D02*
X142494000Y-73914000D01*
X142494000Y-73914000D02*
X142494000Y-75946000D01*
X142494000Y-75946000D02*
X134366000Y-75946000D01*
X134366000Y-75946000D02*
X134366000Y-74930000D01*
X134366000Y-74422000D02*
X134874000Y-73914000D01*
X143510000Y-74930000D02*
X142494000Y-74930000D01*
X133350000Y-68580000D02*
X134366000Y-68580000D01*
X134366000Y-68580000D02*
X134366000Y-67564000D01*
X134366000Y-67564000D02*
X142494000Y-67564000D01*
X142494000Y-67564000D02*
X142494000Y-69596000D01*
X142494000Y-69596000D02*
X134366000Y-69596000D01*
X134366000Y-69596000D02*
X134366000Y-68580000D01*
X134366000Y-68072000D02*
X134874000Y-67564000D01*
X143510000Y-68580000D02*
X142494000Y-68580000D01*
X133350000Y-62230000D02*
X134366000Y-62230000D01*
X134366000Y-62230000D02*
X134366000Y-61214000D01*
X134366000Y-61214000D02*
X142494000Y-61214000D01*
X142494000Y-61214000D02*
X142494000Y-63246000D01*
X142494000Y-63246000D02*
X134366000Y-63246000D01*
X134366000Y-63246000D02*
X134366000Y-62230000D01*
X134366000Y-61722000D02*
X134874000Y-61214000D01*
X143510000Y-62230000D02*
X142494000Y-62230000D01*
D14*
X162680000Y-71120000D02*
X162680000Y-58300000D01*
X162680000Y-58300000D02*
X159900000Y-58300000D01*
X159900000Y-58300000D02*
X159900000Y-71120000D01*
X159900000Y-71120000D02*
X162680000Y-71120000D01*
X162680000Y-72390000D02*
X162680000Y-73780000D01*
X162680000Y-73780000D02*
X161290000Y-73780000D01*
X132080000Y-47505000D02*
X129420000Y-47505000D01*
X129420000Y-47505000D02*
X129420000Y-50285000D01*
X129420000Y-50285000D02*
X132080000Y-50285000D01*
X132080000Y-50285000D02*
X132080000Y-47505000D01*
X133350000Y-47505000D02*
X134740000Y-47505000D01*
X134740000Y-47505000D02*
X134740000Y-48895000D01*
D13*
X154085000Y-77885000D02*
X163835000Y-77885000D01*
X163835000Y-77885000D02*
X163835000Y-119935000D01*
X163835000Y-119935000D02*
X154085000Y-119935000D01*
X154085000Y-119935000D02*
X154085000Y-77885000D01*
X152240000Y-125730000D02*
X152240000Y-133530000D01*
X142240000Y-125730000D02*
X152240000Y-125730000D01*
X142240000Y-133530000D02*
X142240000Y-125730000D01*
X152240000Y-133530000D02*
X142240000Y-133530000D01*
D14*
X109180000Y-62140000D02*
X109180000Y-57320000D01*
X111800000Y-62140000D02*
X111800000Y-57320000D01*
X109180000Y-62140000D02*
X109494000Y-62140000D01*
X111486000Y-62140000D02*
X111800000Y-62140000D01*
X109180000Y-57320000D02*
X109494000Y-57320000D01*
X111486000Y-57320000D02*
X111800000Y-57320000D01*
X111800000Y-65495000D02*
X111800000Y-70315000D01*
X109180000Y-65495000D02*
X109180000Y-70315000D01*
X111800000Y-65495000D02*
X111486000Y-65495000D01*
X109494000Y-65495000D02*
X109180000Y-65495000D01*
X111800000Y-70315000D02*
X111486000Y-70315000D01*
X109494000Y-70315000D02*
X109180000Y-70315000D01*
X122083137Y-101311400D02*
G75*
G03X126877436Y-101310000I2396863J981400D01*
G01*
X122083137Y-99348600D02*
G75*
G02X126877436Y-99350000I2396863J-981400D01*
G01*
X122083137Y-99348600D02*
G75*
G03X122082564Y-101310000I2396863J-981400D01*
G01*
X124480000Y-102880000D02*
X124480000Y-97780000D01*
X124440000Y-102880000D02*
X124440000Y-97780000D01*
X124400000Y-102879000D02*
X124400000Y-97781000D01*
X124360000Y-102878000D02*
X124360000Y-97782000D01*
X124320000Y-102876000D02*
X124320000Y-97784000D01*
X124280000Y-102873000D02*
X124280000Y-97787000D01*
X124240000Y-102869000D02*
X124240000Y-97791000D01*
X124200000Y-102865000D02*
X124200000Y-101310000D01*
X124200000Y-99350000D02*
X124200000Y-97795000D01*
X124160000Y-102861000D02*
X124160000Y-101310000D01*
X124160000Y-99350000D02*
X124160000Y-97799000D01*
X124120000Y-102855000D02*
X124120000Y-101310000D01*
X124120000Y-99350000D02*
X124120000Y-97805000D01*
X124080000Y-102849000D02*
X124080000Y-101310000D01*
X124080000Y-99350000D02*
X124080000Y-97811000D01*
X124040000Y-102843000D02*
X124040000Y-101310000D01*
X124040000Y-99350000D02*
X124040000Y-97817000D01*
X124000000Y-102836000D02*
X124000000Y-101310000D01*
X124000000Y-99350000D02*
X124000000Y-97824000D01*
X123960000Y-102828000D02*
X123960000Y-101310000D01*
X123960000Y-99350000D02*
X123960000Y-97832000D01*
X123920000Y-102819000D02*
X123920000Y-101310000D01*
X123920000Y-99350000D02*
X123920000Y-97841000D01*
X123880000Y-102810000D02*
X123880000Y-101310000D01*
X123880000Y-99350000D02*
X123880000Y-97850000D01*
X123840000Y-102800000D02*
X123840000Y-101310000D01*
X123840000Y-99350000D02*
X123840000Y-97860000D01*
X123800000Y-102790000D02*
X123800000Y-101310000D01*
X123800000Y-99350000D02*
X123800000Y-97870000D01*
X123759000Y-102778000D02*
X123759000Y-101310000D01*
X123759000Y-99350000D02*
X123759000Y-97882000D01*
X123719000Y-102766000D02*
X123719000Y-101310000D01*
X123719000Y-99350000D02*
X123719000Y-97894000D01*
X123679000Y-102754000D02*
X123679000Y-101310000D01*
X123679000Y-99350000D02*
X123679000Y-97906000D01*
X123639000Y-102740000D02*
X123639000Y-101310000D01*
X123639000Y-99350000D02*
X123639000Y-97920000D01*
X123599000Y-102726000D02*
X123599000Y-101310000D01*
X123599000Y-99350000D02*
X123599000Y-97934000D01*
X123559000Y-102712000D02*
X123559000Y-101310000D01*
X123559000Y-99350000D02*
X123559000Y-97948000D01*
X123519000Y-102696000D02*
X123519000Y-101310000D01*
X123519000Y-99350000D02*
X123519000Y-97964000D01*
X123479000Y-102680000D02*
X123479000Y-101310000D01*
X123479000Y-99350000D02*
X123479000Y-97980000D01*
X123439000Y-102663000D02*
X123439000Y-101310000D01*
X123439000Y-99350000D02*
X123439000Y-97997000D01*
X123399000Y-102645000D02*
X123399000Y-101310000D01*
X123399000Y-99350000D02*
X123399000Y-98015000D01*
X123359000Y-102626000D02*
X123359000Y-101310000D01*
X123359000Y-99350000D02*
X123359000Y-98034000D01*
X123319000Y-102606000D02*
X123319000Y-101310000D01*
X123319000Y-99350000D02*
X123319000Y-98054000D01*
X123279000Y-102586000D02*
X123279000Y-101310000D01*
X123279000Y-99350000D02*
X123279000Y-98074000D01*
X123239000Y-102564000D02*
X123239000Y-101310000D01*
X123239000Y-99350000D02*
X123239000Y-98096000D01*
X123199000Y-102542000D02*
X123199000Y-101310000D01*
X123199000Y-99350000D02*
X123199000Y-98118000D01*
X123159000Y-102519000D02*
X123159000Y-101310000D01*
X123159000Y-99350000D02*
X123159000Y-98141000D01*
X123119000Y-102495000D02*
X123119000Y-101310000D01*
X123119000Y-99350000D02*
X123119000Y-98165000D01*
X123079000Y-102470000D02*
X123079000Y-101310000D01*
X123079000Y-99350000D02*
X123079000Y-98190000D01*
X123039000Y-102443000D02*
X123039000Y-101310000D01*
X123039000Y-99350000D02*
X123039000Y-98217000D01*
X122999000Y-102416000D02*
X122999000Y-101310000D01*
X122999000Y-99350000D02*
X122999000Y-98244000D01*
X122959000Y-102388000D02*
X122959000Y-101310000D01*
X122959000Y-99350000D02*
X122959000Y-98272000D01*
X122919000Y-102358000D02*
X122919000Y-101310000D01*
X122919000Y-99350000D02*
X122919000Y-98302000D01*
X122879000Y-102327000D02*
X122879000Y-101310000D01*
X122879000Y-99350000D02*
X122879000Y-98333000D01*
X122839000Y-102295000D02*
X122839000Y-101310000D01*
X122839000Y-99350000D02*
X122839000Y-98365000D01*
X122799000Y-102262000D02*
X122799000Y-101310000D01*
X122799000Y-99350000D02*
X122799000Y-98398000D01*
X122759000Y-102227000D02*
X122759000Y-101310000D01*
X122759000Y-99350000D02*
X122759000Y-98433000D01*
X122719000Y-102191000D02*
X122719000Y-101310000D01*
X122719000Y-99350000D02*
X122719000Y-98469000D01*
X122679000Y-102153000D02*
X122679000Y-101310000D01*
X122679000Y-99350000D02*
X122679000Y-98507000D01*
X122639000Y-102113000D02*
X122639000Y-101310000D01*
X122639000Y-99350000D02*
X122639000Y-98547000D01*
X122599000Y-102072000D02*
X122599000Y-101310000D01*
X122599000Y-99350000D02*
X122599000Y-98588000D01*
X122559000Y-102029000D02*
X122559000Y-101310000D01*
X122559000Y-99350000D02*
X122559000Y-98631000D01*
X122519000Y-101984000D02*
X122519000Y-101310000D01*
X122519000Y-99350000D02*
X122519000Y-98676000D01*
X122479000Y-101936000D02*
X122479000Y-101310000D01*
X122479000Y-99350000D02*
X122479000Y-98724000D01*
X122439000Y-101886000D02*
X122439000Y-101310000D01*
X122439000Y-99350000D02*
X122439000Y-98774000D01*
X122399000Y-101834000D02*
X122399000Y-101310000D01*
X122399000Y-99350000D02*
X122399000Y-98826000D01*
X122359000Y-101778000D02*
X122359000Y-101310000D01*
X122359000Y-99350000D02*
X122359000Y-98882000D01*
X122319000Y-101720000D02*
X122319000Y-101310000D01*
X122319000Y-99350000D02*
X122319000Y-98940000D01*
X122279000Y-101657000D02*
X122279000Y-101310000D01*
X122279000Y-99350000D02*
X122279000Y-99003000D01*
X122239000Y-101591000D02*
X122239000Y-99069000D01*
X122199000Y-101519000D02*
X122199000Y-99141000D01*
X122159000Y-101442000D02*
X122159000Y-99218000D01*
X122119000Y-101358000D02*
X122119000Y-99302000D01*
X122079000Y-101264000D02*
X122079000Y-99396000D01*
X122039000Y-101159000D02*
X122039000Y-99501000D01*
X121999000Y-101037000D02*
X121999000Y-99623000D01*
X121959000Y-100889000D02*
X121959000Y-99771000D01*
X121919000Y-100684000D02*
X121919000Y-99976000D01*
X127930000Y-100330000D02*
X126730000Y-100330000D01*
X127330000Y-100980000D02*
X127330000Y-99680000D01*
X124880635Y-132080000D02*
G75*
G03X124880635Y-132080000I-1690635J0D01*
G01*
X126579365Y-132080000D02*
X124590000Y-132080000D01*
X126322667Y-132969000D02*
X126322667Y-131191000D01*
X126322667Y-132080000D02*
X125137333Y-132969000D01*
X125137333Y-132969000D02*
X125137333Y-131191000D01*
X125137333Y-131191000D02*
X126322667Y-132080000D01*
D13*
X113157143Y-99186666D02*
X113204762Y-99234285D01*
X113252381Y-99377142D01*
X113252381Y-99472380D01*
X113204762Y-99615238D01*
X113109524Y-99710476D01*
X113014286Y-99758095D01*
X112823810Y-99805714D01*
X112680952Y-99805714D01*
X112490476Y-99758095D01*
X112395238Y-99710476D01*
X112300000Y-99615238D01*
X112252381Y-99472380D01*
X112252381Y-99377142D01*
X112300000Y-99234285D01*
X112347619Y-99186666D01*
X113252381Y-98234285D02*
X113252381Y-98805714D01*
X113252381Y-98520000D02*
X112252381Y-98520000D01*
X112395238Y-98615238D01*
X112490476Y-98710476D01*
X112538095Y-98805714D01*
X113593571Y-115085714D02*
X113641190Y-114942857D01*
X113688810Y-114895238D01*
X113784048Y-114847619D01*
X113926905Y-114847619D01*
X114022143Y-114895238D01*
X114069762Y-114942857D01*
X114117381Y-115038095D01*
X114117381Y-115419048D01*
X113117381Y-115419048D01*
X113117381Y-115085714D01*
X113165000Y-114990476D01*
X113212619Y-114942857D01*
X113307857Y-114895238D01*
X113403095Y-114895238D01*
X113498333Y-114942857D01*
X113545952Y-114990476D01*
X113593571Y-115085714D01*
X113593571Y-115419048D01*
X113117381Y-114561905D02*
X113117381Y-113990476D01*
X114117381Y-114276191D02*
X113117381Y-114276191D01*
X114117381Y-113133333D02*
X114117381Y-113704762D01*
X114117381Y-113419048D02*
X113117381Y-113419048D01*
X113260238Y-113514286D01*
X113355476Y-113609524D01*
X113403095Y-113704762D01*
X112268095Y-71582381D02*
X112268095Y-72391905D01*
X112315714Y-72487143D01*
X112363333Y-72534762D01*
X112458571Y-72582381D01*
X112649048Y-72582381D01*
X112744286Y-72534762D01*
X112791905Y-72487143D01*
X112839524Y-72391905D01*
X112839524Y-71582381D01*
X113839524Y-72582381D02*
X113268095Y-72582381D01*
X113553809Y-72582381D02*
X113553809Y-71582381D01*
X113458571Y-71725238D01*
X113363333Y-71820476D01*
X113268095Y-71868095D01*
X150899762Y-52768333D02*
X150947381Y-52625476D01*
X150947381Y-52387380D01*
X150899762Y-52292142D01*
X150852143Y-52244523D01*
X150756905Y-52196904D01*
X150661667Y-52196904D01*
X150566429Y-52244523D01*
X150518810Y-52292142D01*
X150471190Y-52387380D01*
X150423571Y-52577857D01*
X150375952Y-52673095D01*
X150328333Y-52720714D01*
X150233095Y-52768333D01*
X150137857Y-52768333D01*
X150042619Y-52720714D01*
X149995000Y-52673095D01*
X149947381Y-52577857D01*
X149947381Y-52339761D01*
X149995000Y-52196904D01*
X149947381Y-51863571D02*
X150947381Y-51625476D01*
X150233095Y-51434999D01*
X150947381Y-51244523D01*
X149947381Y-51006428D01*
X150947381Y-50101666D02*
X150947381Y-50673095D01*
X150947381Y-50387381D02*
X149947381Y-50387381D01*
X150090238Y-50482619D01*
X150185476Y-50577857D01*
X150233095Y-50673095D01*
X135556667Y-126598571D02*
X135223333Y-126598571D01*
X135223333Y-127122381D02*
X135223333Y-126122381D01*
X135699524Y-126122381D01*
X136604286Y-127122381D02*
X136032857Y-127122381D01*
X136318571Y-127122381D02*
X136318571Y-126122381D01*
X136223333Y-126265238D01*
X136128095Y-126360476D01*
X136032857Y-126408095D01*
X123483810Y-59022381D02*
X123483810Y-58022381D01*
X124531429Y-58927143D02*
X124483810Y-58974762D01*
X124340953Y-59022381D01*
X124245715Y-59022381D01*
X124102857Y-58974762D01*
X124007619Y-58879524D01*
X123960000Y-58784286D01*
X123912381Y-58593810D01*
X123912381Y-58450952D01*
X123960000Y-58260476D01*
X124007619Y-58165238D01*
X124102857Y-58070000D01*
X124245715Y-58022381D01*
X124340953Y-58022381D01*
X124483810Y-58070000D01*
X124531429Y-58117619D01*
X125483810Y-59022381D02*
X124912381Y-59022381D01*
X125198095Y-59022381D02*
X125198095Y-58022381D01*
X125102857Y-58165238D01*
X125007619Y-58260476D01*
X124912381Y-58308095D01*
X114062143Y-47442381D02*
X114062143Y-46442381D01*
X114062143Y-46918571D02*
X114633572Y-46918571D01*
X114633572Y-47442381D02*
X114633572Y-46442381D01*
X115300238Y-46442381D02*
X115490715Y-46442381D01*
X115585953Y-46490000D01*
X115681191Y-46585238D01*
X115728810Y-46775714D01*
X115728810Y-47109048D01*
X115681191Y-47299524D01*
X115585953Y-47394762D01*
X115490715Y-47442381D01*
X115300238Y-47442381D01*
X115205000Y-47394762D01*
X115109762Y-47299524D01*
X115062143Y-47109048D01*
X115062143Y-46775714D01*
X115109762Y-46585238D01*
X115205000Y-46490000D01*
X115300238Y-46442381D01*
X116633572Y-47442381D02*
X116157381Y-47442381D01*
X116157381Y-46442381D01*
X116966905Y-46918571D02*
X117300239Y-46918571D01*
X117443096Y-47442381D02*
X116966905Y-47442381D01*
X116966905Y-46442381D01*
X117443096Y-46442381D01*
X118395477Y-47442381D02*
X117824048Y-47442381D01*
X118109762Y-47442381D02*
X118109762Y-46442381D01*
X118014524Y-46585238D01*
X117919286Y-46680476D01*
X117824048Y-46728095D01*
X140739762Y-52768333D02*
X140787381Y-52625476D01*
X140787381Y-52387380D01*
X140739762Y-52292142D01*
X140692143Y-52244523D01*
X140596905Y-52196904D01*
X140501667Y-52196904D01*
X140406429Y-52244523D01*
X140358810Y-52292142D01*
X140311190Y-52387380D01*
X140263571Y-52577857D01*
X140215952Y-52673095D01*
X140168333Y-52720714D01*
X140073095Y-52768333D01*
X139977857Y-52768333D01*
X139882619Y-52720714D01*
X139835000Y-52673095D01*
X139787381Y-52577857D01*
X139787381Y-52339761D01*
X139835000Y-52196904D01*
X139787381Y-51863571D02*
X140787381Y-51625476D01*
X140073095Y-51434999D01*
X140787381Y-51244523D01*
X139787381Y-51006428D01*
X139882619Y-50673095D02*
X139835000Y-50625476D01*
X139787381Y-50530238D01*
X139787381Y-50292142D01*
X139835000Y-50196904D01*
X139882619Y-50149285D01*
X139977857Y-50101666D01*
X140073095Y-50101666D01*
X140215952Y-50149285D01*
X140787381Y-50720714D01*
X140787381Y-50101666D01*
X152697619Y-120745238D02*
X152650000Y-120840476D01*
X152554762Y-120935714D01*
X152411905Y-121078571D01*
X152364286Y-121173810D01*
X152364286Y-121269048D01*
X152602381Y-121221429D02*
X152554762Y-121316667D01*
X152459524Y-121411905D01*
X152269048Y-121459524D01*
X151935714Y-121459524D01*
X151745238Y-121411905D01*
X151650000Y-121316667D01*
X151602381Y-121221429D01*
X151602381Y-121030952D01*
X151650000Y-120935714D01*
X151745238Y-120840476D01*
X151935714Y-120792857D01*
X152269048Y-120792857D01*
X152459524Y-120840476D01*
X152554762Y-120935714D01*
X152602381Y-121030952D01*
X152602381Y-121221429D01*
X152602381Y-119840476D02*
X152602381Y-120411905D01*
X152602381Y-120126191D02*
X151602381Y-120126191D01*
X151745238Y-120221429D01*
X151840476Y-120316667D01*
X151888095Y-120411905D01*
X124991905Y-130143016D02*
X124991905Y-129143016D01*
X125230000Y-129143016D01*
X125372858Y-129190635D01*
X125468096Y-129285873D01*
X125515715Y-129381111D01*
X125563334Y-129571587D01*
X125563334Y-129714445D01*
X125515715Y-129904921D01*
X125468096Y-130000159D01*
X125372858Y-130095397D01*
X125230000Y-130143016D01*
X124991905Y-130143016D01*
X126515715Y-130143016D02*
X125944286Y-130143016D01*
X126230000Y-130143016D02*
X126230000Y-129143016D01*
X126134762Y-129285873D01*
X126039524Y-129381111D01*
X125944286Y-129428730D01*
X130071905Y-53157381D02*
X130071905Y-52157381D01*
X130310000Y-52157381D01*
X130452858Y-52205000D01*
X130548096Y-52300238D01*
X130595715Y-52395476D01*
X130643334Y-52585952D01*
X130643334Y-52728810D01*
X130595715Y-52919286D01*
X130548096Y-53014524D01*
X130452858Y-53109762D01*
X130310000Y-53157381D01*
X130071905Y-53157381D01*
X131024286Y-52252619D02*
X131071905Y-52205000D01*
X131167143Y-52157381D01*
X131405239Y-52157381D01*
X131500477Y-52205000D01*
X131548096Y-52252619D01*
X131595715Y-52347857D01*
X131595715Y-52443095D01*
X131548096Y-52585952D01*
X130976667Y-53157381D01*
X131595715Y-53157381D01*
X152697619Y-114395238D02*
X152650000Y-114490476D01*
X152554762Y-114585714D01*
X152411905Y-114728571D01*
X152364286Y-114823810D01*
X152364286Y-114919048D01*
X152602381Y-114871429D02*
X152554762Y-114966667D01*
X152459524Y-115061905D01*
X152269048Y-115109524D01*
X151935714Y-115109524D01*
X151745238Y-115061905D01*
X151650000Y-114966667D01*
X151602381Y-114871429D01*
X151602381Y-114680952D01*
X151650000Y-114585714D01*
X151745238Y-114490476D01*
X151935714Y-114442857D01*
X152269048Y-114442857D01*
X152459524Y-114490476D01*
X152554762Y-114585714D01*
X152602381Y-114680952D01*
X152602381Y-114871429D01*
X151697619Y-114061905D02*
X151650000Y-114014286D01*
X151602381Y-113919048D01*
X151602381Y-113680952D01*
X151650000Y-113585714D01*
X151697619Y-113538095D01*
X151792857Y-113490476D01*
X151888095Y-113490476D01*
X152030952Y-113538095D01*
X152602381Y-114109524D01*
X152602381Y-113490476D01*
X152697619Y-108045238D02*
X152650000Y-108140476D01*
X152554762Y-108235714D01*
X152411905Y-108378571D01*
X152364286Y-108473810D01*
X152364286Y-108569048D01*
X152602381Y-108521429D02*
X152554762Y-108616667D01*
X152459524Y-108711905D01*
X152269048Y-108759524D01*
X151935714Y-108759524D01*
X151745238Y-108711905D01*
X151650000Y-108616667D01*
X151602381Y-108521429D01*
X151602381Y-108330952D01*
X151650000Y-108235714D01*
X151745238Y-108140476D01*
X151935714Y-108092857D01*
X152269048Y-108092857D01*
X152459524Y-108140476D01*
X152554762Y-108235714D01*
X152602381Y-108330952D01*
X152602381Y-108521429D01*
X151602381Y-107759524D02*
X151602381Y-107140476D01*
X151983333Y-107473810D01*
X151983333Y-107330952D01*
X152030952Y-107235714D01*
X152078571Y-107188095D01*
X152173810Y-107140476D01*
X152411905Y-107140476D01*
X152507143Y-107188095D01*
X152554762Y-107235714D01*
X152602381Y-107330952D01*
X152602381Y-107616667D01*
X152554762Y-107711905D01*
X152507143Y-107759524D01*
X152697619Y-101695238D02*
X152650000Y-101790476D01*
X152554762Y-101885714D01*
X152411905Y-102028571D01*
X152364286Y-102123810D01*
X152364286Y-102219048D01*
X152602381Y-102171429D02*
X152554762Y-102266667D01*
X152459524Y-102361905D01*
X152269048Y-102409524D01*
X151935714Y-102409524D01*
X151745238Y-102361905D01*
X151650000Y-102266667D01*
X151602381Y-102171429D01*
X151602381Y-101980952D01*
X151650000Y-101885714D01*
X151745238Y-101790476D01*
X151935714Y-101742857D01*
X152269048Y-101742857D01*
X152459524Y-101790476D01*
X152554762Y-101885714D01*
X152602381Y-101980952D01*
X152602381Y-102171429D01*
X151935714Y-100885714D02*
X152602381Y-100885714D01*
X151554762Y-101123810D02*
X152269048Y-101361905D01*
X152269048Y-100742857D01*
X152697619Y-95345238D02*
X152650000Y-95440476D01*
X152554762Y-95535714D01*
X152411905Y-95678571D01*
X152364286Y-95773810D01*
X152364286Y-95869048D01*
X152602381Y-95821429D02*
X152554762Y-95916667D01*
X152459524Y-96011905D01*
X152269048Y-96059524D01*
X151935714Y-96059524D01*
X151745238Y-96011905D01*
X151650000Y-95916667D01*
X151602381Y-95821429D01*
X151602381Y-95630952D01*
X151650000Y-95535714D01*
X151745238Y-95440476D01*
X151935714Y-95392857D01*
X152269048Y-95392857D01*
X152459524Y-95440476D01*
X152554762Y-95535714D01*
X152602381Y-95630952D01*
X152602381Y-95821429D01*
X151602381Y-94488095D02*
X151602381Y-94964286D01*
X152078571Y-95011905D01*
X152030952Y-94964286D01*
X151983333Y-94869048D01*
X151983333Y-94630952D01*
X152030952Y-94535714D01*
X152078571Y-94488095D01*
X152173810Y-94440476D01*
X152411905Y-94440476D01*
X152507143Y-94488095D01*
X152554762Y-94535714D01*
X152602381Y-94630952D01*
X152602381Y-94869048D01*
X152554762Y-94964286D01*
X152507143Y-95011905D01*
X152697619Y-88995238D02*
X152650000Y-89090476D01*
X152554762Y-89185714D01*
X152411905Y-89328571D01*
X152364286Y-89423810D01*
X152364286Y-89519048D01*
X152602381Y-89471429D02*
X152554762Y-89566667D01*
X152459524Y-89661905D01*
X152269048Y-89709524D01*
X151935714Y-89709524D01*
X151745238Y-89661905D01*
X151650000Y-89566667D01*
X151602381Y-89471429D01*
X151602381Y-89280952D01*
X151650000Y-89185714D01*
X151745238Y-89090476D01*
X151935714Y-89042857D01*
X152269048Y-89042857D01*
X152459524Y-89090476D01*
X152554762Y-89185714D01*
X152602381Y-89280952D01*
X152602381Y-89471429D01*
X151602381Y-88185714D02*
X151602381Y-88376191D01*
X151650000Y-88471429D01*
X151697619Y-88519048D01*
X151840476Y-88614286D01*
X152030952Y-88661905D01*
X152411905Y-88661905D01*
X152507143Y-88614286D01*
X152554762Y-88566667D01*
X152602381Y-88471429D01*
X152602381Y-88280952D01*
X152554762Y-88185714D01*
X152507143Y-88138095D01*
X152411905Y-88090476D01*
X152173810Y-88090476D01*
X152078571Y-88138095D01*
X152030952Y-88185714D01*
X151983333Y-88280952D01*
X151983333Y-88471429D01*
X152030952Y-88566667D01*
X152078571Y-88614286D01*
X152173810Y-88661905D01*
X152697619Y-82645238D02*
X152650000Y-82740476D01*
X152554762Y-82835714D01*
X152411905Y-82978571D01*
X152364286Y-83073810D01*
X152364286Y-83169048D01*
X152602381Y-83121429D02*
X152554762Y-83216667D01*
X152459524Y-83311905D01*
X152269048Y-83359524D01*
X151935714Y-83359524D01*
X151745238Y-83311905D01*
X151650000Y-83216667D01*
X151602381Y-83121429D01*
X151602381Y-82930952D01*
X151650000Y-82835714D01*
X151745238Y-82740476D01*
X151935714Y-82692857D01*
X152269048Y-82692857D01*
X152459524Y-82740476D01*
X152554762Y-82835714D01*
X152602381Y-82930952D01*
X152602381Y-83121429D01*
X151602381Y-82359524D02*
X151602381Y-81692857D01*
X152602381Y-82121429D01*
X152697619Y-76295238D02*
X152650000Y-76390476D01*
X152554762Y-76485714D01*
X152411905Y-76628571D01*
X152364286Y-76723810D01*
X152364286Y-76819048D01*
X152602381Y-76771429D02*
X152554762Y-76866667D01*
X152459524Y-76961905D01*
X152269048Y-77009524D01*
X151935714Y-77009524D01*
X151745238Y-76961905D01*
X151650000Y-76866667D01*
X151602381Y-76771429D01*
X151602381Y-76580952D01*
X151650000Y-76485714D01*
X151745238Y-76390476D01*
X151935714Y-76342857D01*
X152269048Y-76342857D01*
X152459524Y-76390476D01*
X152554762Y-76485714D01*
X152602381Y-76580952D01*
X152602381Y-76771429D01*
X152030952Y-75771429D02*
X151983333Y-75866667D01*
X151935714Y-75914286D01*
X151840476Y-75961905D01*
X151792857Y-75961905D01*
X151697619Y-75914286D01*
X151650000Y-75866667D01*
X151602381Y-75771429D01*
X151602381Y-75580952D01*
X151650000Y-75485714D01*
X151697619Y-75438095D01*
X151792857Y-75390476D01*
X151840476Y-75390476D01*
X151935714Y-75438095D01*
X151983333Y-75485714D01*
X152030952Y-75580952D01*
X152030952Y-75771429D01*
X152078571Y-75866667D01*
X152126190Y-75914286D01*
X152221429Y-75961905D01*
X152411905Y-75961905D01*
X152507143Y-75914286D01*
X152554762Y-75866667D01*
X152602381Y-75771429D01*
X152602381Y-75580952D01*
X152554762Y-75485714D01*
X152507143Y-75438095D01*
X152411905Y-75390476D01*
X152221429Y-75390476D01*
X152126190Y-75438095D01*
X152078571Y-75485714D01*
X152030952Y-75580952D01*
X152697619Y-69945238D02*
X152650000Y-70040476D01*
X152554762Y-70135714D01*
X152411905Y-70278571D01*
X152364286Y-70373810D01*
X152364286Y-70469048D01*
X152602381Y-70421429D02*
X152554762Y-70516667D01*
X152459524Y-70611905D01*
X152269048Y-70659524D01*
X151935714Y-70659524D01*
X151745238Y-70611905D01*
X151650000Y-70516667D01*
X151602381Y-70421429D01*
X151602381Y-70230952D01*
X151650000Y-70135714D01*
X151745238Y-70040476D01*
X151935714Y-69992857D01*
X152269048Y-69992857D01*
X152459524Y-70040476D01*
X152554762Y-70135714D01*
X152602381Y-70230952D01*
X152602381Y-70421429D01*
X152602381Y-69516667D02*
X152602381Y-69326191D01*
X152554762Y-69230952D01*
X152507143Y-69183333D01*
X152364286Y-69088095D01*
X152173810Y-69040476D01*
X151792857Y-69040476D01*
X151697619Y-69088095D01*
X151650000Y-69135714D01*
X151602381Y-69230952D01*
X151602381Y-69421429D01*
X151650000Y-69516667D01*
X151697619Y-69564286D01*
X151792857Y-69611905D01*
X152030952Y-69611905D01*
X152126190Y-69564286D01*
X152173810Y-69516667D01*
X152221429Y-69421429D01*
X152221429Y-69230952D01*
X152173810Y-69135714D01*
X152126190Y-69088095D01*
X152030952Y-69040476D01*
X152697619Y-64071428D02*
X152650000Y-64166666D01*
X152554762Y-64261904D01*
X152411905Y-64404761D01*
X152364286Y-64500000D01*
X152364286Y-64595238D01*
X152602381Y-64547619D02*
X152554762Y-64642857D01*
X152459524Y-64738095D01*
X152269048Y-64785714D01*
X151935714Y-64785714D01*
X151745238Y-64738095D01*
X151650000Y-64642857D01*
X151602381Y-64547619D01*
X151602381Y-64357142D01*
X151650000Y-64261904D01*
X151745238Y-64166666D01*
X151935714Y-64119047D01*
X152269048Y-64119047D01*
X152459524Y-64166666D01*
X152554762Y-64261904D01*
X152602381Y-64357142D01*
X152602381Y-64547619D01*
X152602381Y-63166666D02*
X152602381Y-63738095D01*
X152602381Y-63452381D02*
X151602381Y-63452381D01*
X151745238Y-63547619D01*
X151840476Y-63642857D01*
X151888095Y-63738095D01*
X151602381Y-62547619D02*
X151602381Y-62452380D01*
X151650000Y-62357142D01*
X151697619Y-62309523D01*
X151792857Y-62261904D01*
X151983333Y-62214285D01*
X152221429Y-62214285D01*
X152411905Y-62261904D01*
X152507143Y-62309523D01*
X152554762Y-62357142D01*
X152602381Y-62452380D01*
X152602381Y-62547619D01*
X152554762Y-62642857D01*
X152507143Y-62690476D01*
X152411905Y-62738095D01*
X152221429Y-62785714D01*
X151983333Y-62785714D01*
X151792857Y-62738095D01*
X151697619Y-62690476D01*
X151650000Y-62642857D01*
X151602381Y-62547619D01*
X121118334Y-55062381D02*
X120785000Y-54586190D01*
X120546905Y-55062381D02*
X120546905Y-54062381D01*
X120927858Y-54062381D01*
X121023096Y-54110000D01*
X121070715Y-54157619D01*
X121118334Y-54252857D01*
X121118334Y-54395714D01*
X121070715Y-54490952D01*
X121023096Y-54538571D01*
X120927858Y-54586190D01*
X120546905Y-54586190D01*
X121499286Y-54157619D02*
X121546905Y-54110000D01*
X121642143Y-54062381D01*
X121880239Y-54062381D01*
X121975477Y-54110000D01*
X122023096Y-54157619D01*
X122070715Y-54252857D01*
X122070715Y-54348095D01*
X122023096Y-54490952D01*
X121451667Y-55062381D01*
X122070715Y-55062381D01*
X121118334Y-51887381D02*
X120785000Y-51411190D01*
X120546905Y-51887381D02*
X120546905Y-50887381D01*
X120927858Y-50887381D01*
X121023096Y-50935000D01*
X121070715Y-50982619D01*
X121118334Y-51077857D01*
X121118334Y-51220714D01*
X121070715Y-51315952D01*
X121023096Y-51363571D01*
X120927858Y-51411190D01*
X120546905Y-51411190D01*
X121451667Y-50887381D02*
X122070715Y-50887381D01*
X121737381Y-51268333D01*
X121880239Y-51268333D01*
X121975477Y-51315952D01*
X122023096Y-51363571D01*
X122070715Y-51458810D01*
X122070715Y-51696905D01*
X122023096Y-51792143D01*
X121975477Y-51839762D01*
X121880239Y-51887381D01*
X121594524Y-51887381D01*
X121499286Y-51839762D01*
X121451667Y-51792143D01*
X138263334Y-122372381D02*
X137930000Y-121896190D01*
X137691905Y-122372381D02*
X137691905Y-121372381D01*
X138072858Y-121372381D01*
X138168096Y-121420000D01*
X138215715Y-121467619D01*
X138263334Y-121562857D01*
X138263334Y-121705714D01*
X138215715Y-121800952D01*
X138168096Y-121848571D01*
X138072858Y-121896190D01*
X137691905Y-121896190D01*
X139120477Y-121705714D02*
X139120477Y-122372381D01*
X138882381Y-121324762D02*
X138644286Y-122039048D01*
X139263334Y-122039048D01*
X138263334Y-116022381D02*
X137930000Y-115546190D01*
X137691905Y-116022381D02*
X137691905Y-115022381D01*
X138072858Y-115022381D01*
X138168096Y-115070000D01*
X138215715Y-115117619D01*
X138263334Y-115212857D01*
X138263334Y-115355714D01*
X138215715Y-115450952D01*
X138168096Y-115498571D01*
X138072858Y-115546190D01*
X137691905Y-115546190D01*
X139168096Y-115022381D02*
X138691905Y-115022381D01*
X138644286Y-115498571D01*
X138691905Y-115450952D01*
X138787143Y-115403333D01*
X139025239Y-115403333D01*
X139120477Y-115450952D01*
X139168096Y-115498571D01*
X139215715Y-115593810D01*
X139215715Y-115831905D01*
X139168096Y-115927143D01*
X139120477Y-115974762D01*
X139025239Y-116022381D01*
X138787143Y-116022381D01*
X138691905Y-115974762D01*
X138644286Y-115927143D01*
X138263334Y-109672381D02*
X137930000Y-109196190D01*
X137691905Y-109672381D02*
X137691905Y-108672381D01*
X138072858Y-108672381D01*
X138168096Y-108720000D01*
X138215715Y-108767619D01*
X138263334Y-108862857D01*
X138263334Y-109005714D01*
X138215715Y-109100952D01*
X138168096Y-109148571D01*
X138072858Y-109196190D01*
X137691905Y-109196190D01*
X139120477Y-108672381D02*
X138930000Y-108672381D01*
X138834762Y-108720000D01*
X138787143Y-108767619D01*
X138691905Y-108910476D01*
X138644286Y-109100952D01*
X138644286Y-109481905D01*
X138691905Y-109577143D01*
X138739524Y-109624762D01*
X138834762Y-109672381D01*
X139025239Y-109672381D01*
X139120477Y-109624762D01*
X139168096Y-109577143D01*
X139215715Y-109481905D01*
X139215715Y-109243810D01*
X139168096Y-109148571D01*
X139120477Y-109100952D01*
X139025239Y-109053333D01*
X138834762Y-109053333D01*
X138739524Y-109100952D01*
X138691905Y-109148571D01*
X138644286Y-109243810D01*
X138263334Y-103322381D02*
X137930000Y-102846190D01*
X137691905Y-103322381D02*
X137691905Y-102322381D01*
X138072858Y-102322381D01*
X138168096Y-102370000D01*
X138215715Y-102417619D01*
X138263334Y-102512857D01*
X138263334Y-102655714D01*
X138215715Y-102750952D01*
X138168096Y-102798571D01*
X138072858Y-102846190D01*
X137691905Y-102846190D01*
X138596667Y-102322381D02*
X139263334Y-102322381D01*
X138834762Y-103322381D01*
X138263334Y-96972381D02*
X137930000Y-96496190D01*
X137691905Y-96972381D02*
X137691905Y-95972381D01*
X138072858Y-95972381D01*
X138168096Y-96020000D01*
X138215715Y-96067619D01*
X138263334Y-96162857D01*
X138263334Y-96305714D01*
X138215715Y-96400952D01*
X138168096Y-96448571D01*
X138072858Y-96496190D01*
X137691905Y-96496190D01*
X138834762Y-96400952D02*
X138739524Y-96353333D01*
X138691905Y-96305714D01*
X138644286Y-96210476D01*
X138644286Y-96162857D01*
X138691905Y-96067619D01*
X138739524Y-96020000D01*
X138834762Y-95972381D01*
X139025239Y-95972381D01*
X139120477Y-96020000D01*
X139168096Y-96067619D01*
X139215715Y-96162857D01*
X139215715Y-96210476D01*
X139168096Y-96305714D01*
X139120477Y-96353333D01*
X139025239Y-96400952D01*
X138834762Y-96400952D01*
X138739524Y-96448571D01*
X138691905Y-96496190D01*
X138644286Y-96591429D01*
X138644286Y-96781905D01*
X138691905Y-96877143D01*
X138739524Y-96924762D01*
X138834762Y-96972381D01*
X139025239Y-96972381D01*
X139120477Y-96924762D01*
X139168096Y-96877143D01*
X139215715Y-96781905D01*
X139215715Y-96591429D01*
X139168096Y-96496190D01*
X139120477Y-96448571D01*
X139025239Y-96400952D01*
X138263334Y-90622381D02*
X137930000Y-90146190D01*
X137691905Y-90622381D02*
X137691905Y-89622381D01*
X138072858Y-89622381D01*
X138168096Y-89670000D01*
X138215715Y-89717619D01*
X138263334Y-89812857D01*
X138263334Y-89955714D01*
X138215715Y-90050952D01*
X138168096Y-90098571D01*
X138072858Y-90146190D01*
X137691905Y-90146190D01*
X138739524Y-90622381D02*
X138930000Y-90622381D01*
X139025239Y-90574762D01*
X139072858Y-90527143D01*
X139168096Y-90384286D01*
X139215715Y-90193810D01*
X139215715Y-89812857D01*
X139168096Y-89717619D01*
X139120477Y-89670000D01*
X139025239Y-89622381D01*
X138834762Y-89622381D01*
X138739524Y-89670000D01*
X138691905Y-89717619D01*
X138644286Y-89812857D01*
X138644286Y-90050952D01*
X138691905Y-90146190D01*
X138739524Y-90193810D01*
X138834762Y-90241429D01*
X139025239Y-90241429D01*
X139120477Y-90193810D01*
X139168096Y-90146190D01*
X139215715Y-90050952D01*
X137787143Y-84272381D02*
X137453809Y-83796190D01*
X137215714Y-84272381D02*
X137215714Y-83272381D01*
X137596667Y-83272381D01*
X137691905Y-83320000D01*
X137739524Y-83367619D01*
X137787143Y-83462857D01*
X137787143Y-83605714D01*
X137739524Y-83700952D01*
X137691905Y-83748571D01*
X137596667Y-83796190D01*
X137215714Y-83796190D01*
X138739524Y-84272381D02*
X138168095Y-84272381D01*
X138453809Y-84272381D02*
X138453809Y-83272381D01*
X138358571Y-83415238D01*
X138263333Y-83510476D01*
X138168095Y-83558095D01*
X139358571Y-83272381D02*
X139453810Y-83272381D01*
X139549048Y-83320000D01*
X139596667Y-83367619D01*
X139644286Y-83462857D01*
X139691905Y-83653333D01*
X139691905Y-83891429D01*
X139644286Y-84081905D01*
X139596667Y-84177143D01*
X139549048Y-84224762D01*
X139453810Y-84272381D01*
X139358571Y-84272381D01*
X139263333Y-84224762D01*
X139215714Y-84177143D01*
X139168095Y-84081905D01*
X139120476Y-83891429D01*
X139120476Y-83653333D01*
X139168095Y-83462857D01*
X139215714Y-83367619D01*
X139263333Y-83320000D01*
X139358571Y-83272381D01*
X137787143Y-77922381D02*
X137453809Y-77446190D01*
X137215714Y-77922381D02*
X137215714Y-76922381D01*
X137596667Y-76922381D01*
X137691905Y-76970000D01*
X137739524Y-77017619D01*
X137787143Y-77112857D01*
X137787143Y-77255714D01*
X137739524Y-77350952D01*
X137691905Y-77398571D01*
X137596667Y-77446190D01*
X137215714Y-77446190D01*
X138739524Y-77922381D02*
X138168095Y-77922381D01*
X138453809Y-77922381D02*
X138453809Y-76922381D01*
X138358571Y-77065238D01*
X138263333Y-77160476D01*
X138168095Y-77208095D01*
X139691905Y-77922381D02*
X139120476Y-77922381D01*
X139406190Y-77922381D02*
X139406190Y-76922381D01*
X139310952Y-77065238D01*
X139215714Y-77160476D01*
X139120476Y-77208095D01*
X137787143Y-71572381D02*
X137453809Y-71096190D01*
X137215714Y-71572381D02*
X137215714Y-70572381D01*
X137596667Y-70572381D01*
X137691905Y-70620000D01*
X137739524Y-70667619D01*
X137787143Y-70762857D01*
X137787143Y-70905714D01*
X137739524Y-71000952D01*
X137691905Y-71048571D01*
X137596667Y-71096190D01*
X137215714Y-71096190D01*
X138739524Y-71572381D02*
X138168095Y-71572381D01*
X138453809Y-71572381D02*
X138453809Y-70572381D01*
X138358571Y-70715238D01*
X138263333Y-70810476D01*
X138168095Y-70858095D01*
X139120476Y-70667619D02*
X139168095Y-70620000D01*
X139263333Y-70572381D01*
X139501429Y-70572381D01*
X139596667Y-70620000D01*
X139644286Y-70667619D01*
X139691905Y-70762857D01*
X139691905Y-70858095D01*
X139644286Y-71000952D01*
X139072857Y-71572381D01*
X139691905Y-71572381D01*
X137787143Y-65222381D02*
X137453809Y-64746190D01*
X137215714Y-65222381D02*
X137215714Y-64222381D01*
X137596667Y-64222381D01*
X137691905Y-64270000D01*
X137739524Y-64317619D01*
X137787143Y-64412857D01*
X137787143Y-64555714D01*
X137739524Y-64650952D01*
X137691905Y-64698571D01*
X137596667Y-64746190D01*
X137215714Y-64746190D01*
X138739524Y-65222381D02*
X138168095Y-65222381D01*
X138453809Y-65222381D02*
X138453809Y-64222381D01*
X138358571Y-64365238D01*
X138263333Y-64460476D01*
X138168095Y-64508095D01*
X139072857Y-64222381D02*
X139691905Y-64222381D01*
X139358571Y-64603333D01*
X139501429Y-64603333D01*
X139596667Y-64650952D01*
X139644286Y-64698571D01*
X139691905Y-64793810D01*
X139691905Y-65031905D01*
X139644286Y-65127143D01*
X139596667Y-65174762D01*
X139501429Y-65222381D01*
X139215714Y-65222381D01*
X139120476Y-65174762D01*
X139072857Y-65127143D01*
X117476190Y-69476191D02*
X117952381Y-69476191D01*
X116952381Y-69809524D02*
X117476190Y-69476191D01*
X116952381Y-69142857D01*
X117952381Y-68285714D02*
X117952381Y-68857143D01*
X117952381Y-68571429D02*
X116952381Y-68571429D01*
X117095238Y-68666667D01*
X117190476Y-68761905D01*
X117238095Y-68857143D01*
X137787143Y-119832381D02*
X137453809Y-119356190D01*
X137215714Y-119832381D02*
X137215714Y-118832381D01*
X137596667Y-118832381D01*
X137691905Y-118880000D01*
X137739524Y-118927619D01*
X137787143Y-119022857D01*
X137787143Y-119165714D01*
X137739524Y-119260952D01*
X137691905Y-119308571D01*
X137596667Y-119356190D01*
X137215714Y-119356190D01*
X138739524Y-119832381D02*
X138168095Y-119832381D01*
X138453809Y-119832381D02*
X138453809Y-118832381D01*
X138358571Y-118975238D01*
X138263333Y-119070476D01*
X138168095Y-119118095D01*
X139596667Y-119165714D02*
X139596667Y-119832381D01*
X139358571Y-118784762D02*
X139120476Y-119499048D01*
X139739524Y-119499048D01*
X137787143Y-113482381D02*
X137453809Y-113006190D01*
X137215714Y-113482381D02*
X137215714Y-112482381D01*
X137596667Y-112482381D01*
X137691905Y-112530000D01*
X137739524Y-112577619D01*
X137787143Y-112672857D01*
X137787143Y-112815714D01*
X137739524Y-112910952D01*
X137691905Y-112958571D01*
X137596667Y-113006190D01*
X137215714Y-113006190D01*
X138739524Y-113482381D02*
X138168095Y-113482381D01*
X138453809Y-113482381D02*
X138453809Y-112482381D01*
X138358571Y-112625238D01*
X138263333Y-112720476D01*
X138168095Y-112768095D01*
X139644286Y-112482381D02*
X139168095Y-112482381D01*
X139120476Y-112958571D01*
X139168095Y-112910952D01*
X139263333Y-112863333D01*
X139501429Y-112863333D01*
X139596667Y-112910952D01*
X139644286Y-112958571D01*
X139691905Y-113053810D01*
X139691905Y-113291905D01*
X139644286Y-113387143D01*
X139596667Y-113434762D01*
X139501429Y-113482381D01*
X139263333Y-113482381D01*
X139168095Y-113434762D01*
X139120476Y-113387143D01*
X137787143Y-107132381D02*
X137453809Y-106656190D01*
X137215714Y-107132381D02*
X137215714Y-106132381D01*
X137596667Y-106132381D01*
X137691905Y-106180000D01*
X137739524Y-106227619D01*
X137787143Y-106322857D01*
X137787143Y-106465714D01*
X137739524Y-106560952D01*
X137691905Y-106608571D01*
X137596667Y-106656190D01*
X137215714Y-106656190D01*
X138739524Y-107132381D02*
X138168095Y-107132381D01*
X138453809Y-107132381D02*
X138453809Y-106132381D01*
X138358571Y-106275238D01*
X138263333Y-106370476D01*
X138168095Y-106418095D01*
X139596667Y-106132381D02*
X139406190Y-106132381D01*
X139310952Y-106180000D01*
X139263333Y-106227619D01*
X139168095Y-106370476D01*
X139120476Y-106560952D01*
X139120476Y-106941905D01*
X139168095Y-107037143D01*
X139215714Y-107084762D01*
X139310952Y-107132381D01*
X139501429Y-107132381D01*
X139596667Y-107084762D01*
X139644286Y-107037143D01*
X139691905Y-106941905D01*
X139691905Y-106703810D01*
X139644286Y-106608571D01*
X139596667Y-106560952D01*
X139501429Y-106513333D01*
X139310952Y-106513333D01*
X139215714Y-106560952D01*
X139168095Y-106608571D01*
X139120476Y-106703810D01*
X137787143Y-100782381D02*
X137453809Y-100306190D01*
X137215714Y-100782381D02*
X137215714Y-99782381D01*
X137596667Y-99782381D01*
X137691905Y-99830000D01*
X137739524Y-99877619D01*
X137787143Y-99972857D01*
X137787143Y-100115714D01*
X137739524Y-100210952D01*
X137691905Y-100258571D01*
X137596667Y-100306190D01*
X137215714Y-100306190D01*
X138739524Y-100782381D02*
X138168095Y-100782381D01*
X138453809Y-100782381D02*
X138453809Y-99782381D01*
X138358571Y-99925238D01*
X138263333Y-100020476D01*
X138168095Y-100068095D01*
X139072857Y-99782381D02*
X139739524Y-99782381D01*
X139310952Y-100782381D01*
X137787143Y-94432381D02*
X137453809Y-93956190D01*
X137215714Y-94432381D02*
X137215714Y-93432381D01*
X137596667Y-93432381D01*
X137691905Y-93480000D01*
X137739524Y-93527619D01*
X137787143Y-93622857D01*
X137787143Y-93765714D01*
X137739524Y-93860952D01*
X137691905Y-93908571D01*
X137596667Y-93956190D01*
X137215714Y-93956190D01*
X138739524Y-94432381D02*
X138168095Y-94432381D01*
X138453809Y-94432381D02*
X138453809Y-93432381D01*
X138358571Y-93575238D01*
X138263333Y-93670476D01*
X138168095Y-93718095D01*
X139310952Y-93860952D02*
X139215714Y-93813333D01*
X139168095Y-93765714D01*
X139120476Y-93670476D01*
X139120476Y-93622857D01*
X139168095Y-93527619D01*
X139215714Y-93480000D01*
X139310952Y-93432381D01*
X139501429Y-93432381D01*
X139596667Y-93480000D01*
X139644286Y-93527619D01*
X139691905Y-93622857D01*
X139691905Y-93670476D01*
X139644286Y-93765714D01*
X139596667Y-93813333D01*
X139501429Y-93860952D01*
X139310952Y-93860952D01*
X139215714Y-93908571D01*
X139168095Y-93956190D01*
X139120476Y-94051429D01*
X139120476Y-94241905D01*
X139168095Y-94337143D01*
X139215714Y-94384762D01*
X139310952Y-94432381D01*
X139501429Y-94432381D01*
X139596667Y-94384762D01*
X139644286Y-94337143D01*
X139691905Y-94241905D01*
X139691905Y-94051429D01*
X139644286Y-93956190D01*
X139596667Y-93908571D01*
X139501429Y-93860952D01*
X137787143Y-88082381D02*
X137453809Y-87606190D01*
X137215714Y-88082381D02*
X137215714Y-87082381D01*
X137596667Y-87082381D01*
X137691905Y-87130000D01*
X137739524Y-87177619D01*
X137787143Y-87272857D01*
X137787143Y-87415714D01*
X137739524Y-87510952D01*
X137691905Y-87558571D01*
X137596667Y-87606190D01*
X137215714Y-87606190D01*
X138739524Y-88082381D02*
X138168095Y-88082381D01*
X138453809Y-88082381D02*
X138453809Y-87082381D01*
X138358571Y-87225238D01*
X138263333Y-87320476D01*
X138168095Y-87368095D01*
X139215714Y-88082381D02*
X139406190Y-88082381D01*
X139501429Y-88034762D01*
X139549048Y-87987143D01*
X139644286Y-87844286D01*
X139691905Y-87653810D01*
X139691905Y-87272857D01*
X139644286Y-87177619D01*
X139596667Y-87130000D01*
X139501429Y-87082381D01*
X139310952Y-87082381D01*
X139215714Y-87130000D01*
X139168095Y-87177619D01*
X139120476Y-87272857D01*
X139120476Y-87510952D01*
X139168095Y-87606190D01*
X139215714Y-87653810D01*
X139310952Y-87701429D01*
X139501429Y-87701429D01*
X139596667Y-87653810D01*
X139644286Y-87606190D01*
X139691905Y-87510952D01*
X137787143Y-81732381D02*
X137453809Y-81256190D01*
X137215714Y-81732381D02*
X137215714Y-80732381D01*
X137596667Y-80732381D01*
X137691905Y-80780000D01*
X137739524Y-80827619D01*
X137787143Y-80922857D01*
X137787143Y-81065714D01*
X137739524Y-81160952D01*
X137691905Y-81208571D01*
X137596667Y-81256190D01*
X137215714Y-81256190D01*
X138168095Y-80827619D02*
X138215714Y-80780000D01*
X138310952Y-80732381D01*
X138549048Y-80732381D01*
X138644286Y-80780000D01*
X138691905Y-80827619D01*
X138739524Y-80922857D01*
X138739524Y-81018095D01*
X138691905Y-81160952D01*
X138120476Y-81732381D01*
X138739524Y-81732381D01*
X139358571Y-80732381D02*
X139453810Y-80732381D01*
X139549048Y-80780000D01*
X139596667Y-80827619D01*
X139644286Y-80922857D01*
X139691905Y-81113333D01*
X139691905Y-81351429D01*
X139644286Y-81541905D01*
X139596667Y-81637143D01*
X139549048Y-81684762D01*
X139453810Y-81732381D01*
X139358571Y-81732381D01*
X139263333Y-81684762D01*
X139215714Y-81637143D01*
X139168095Y-81541905D01*
X139120476Y-81351429D01*
X139120476Y-81113333D01*
X139168095Y-80922857D01*
X139215714Y-80827619D01*
X139263333Y-80780000D01*
X139358571Y-80732381D01*
X137787143Y-75382381D02*
X137453809Y-74906190D01*
X137215714Y-75382381D02*
X137215714Y-74382381D01*
X137596667Y-74382381D01*
X137691905Y-74430000D01*
X137739524Y-74477619D01*
X137787143Y-74572857D01*
X137787143Y-74715714D01*
X137739524Y-74810952D01*
X137691905Y-74858571D01*
X137596667Y-74906190D01*
X137215714Y-74906190D01*
X138168095Y-74477619D02*
X138215714Y-74430000D01*
X138310952Y-74382381D01*
X138549048Y-74382381D01*
X138644286Y-74430000D01*
X138691905Y-74477619D01*
X138739524Y-74572857D01*
X138739524Y-74668095D01*
X138691905Y-74810952D01*
X138120476Y-75382381D01*
X138739524Y-75382381D01*
X139691905Y-75382381D02*
X139120476Y-75382381D01*
X139406190Y-75382381D02*
X139406190Y-74382381D01*
X139310952Y-74525238D01*
X139215714Y-74620476D01*
X139120476Y-74668095D01*
X137787143Y-69032381D02*
X137453809Y-68556190D01*
X137215714Y-69032381D02*
X137215714Y-68032381D01*
X137596667Y-68032381D01*
X137691905Y-68080000D01*
X137739524Y-68127619D01*
X137787143Y-68222857D01*
X137787143Y-68365714D01*
X137739524Y-68460952D01*
X137691905Y-68508571D01*
X137596667Y-68556190D01*
X137215714Y-68556190D01*
X138168095Y-68127619D02*
X138215714Y-68080000D01*
X138310952Y-68032381D01*
X138549048Y-68032381D01*
X138644286Y-68080000D01*
X138691905Y-68127619D01*
X138739524Y-68222857D01*
X138739524Y-68318095D01*
X138691905Y-68460952D01*
X138120476Y-69032381D01*
X138739524Y-69032381D01*
X139120476Y-68127619D02*
X139168095Y-68080000D01*
X139263333Y-68032381D01*
X139501429Y-68032381D01*
X139596667Y-68080000D01*
X139644286Y-68127619D01*
X139691905Y-68222857D01*
X139691905Y-68318095D01*
X139644286Y-68460952D01*
X139072857Y-69032381D01*
X139691905Y-69032381D01*
X137787143Y-62682381D02*
X137453809Y-62206190D01*
X137215714Y-62682381D02*
X137215714Y-61682381D01*
X137596667Y-61682381D01*
X137691905Y-61730000D01*
X137739524Y-61777619D01*
X137787143Y-61872857D01*
X137787143Y-62015714D01*
X137739524Y-62110952D01*
X137691905Y-62158571D01*
X137596667Y-62206190D01*
X137215714Y-62206190D01*
X138168095Y-61777619D02*
X138215714Y-61730000D01*
X138310952Y-61682381D01*
X138549048Y-61682381D01*
X138644286Y-61730000D01*
X138691905Y-61777619D01*
X138739524Y-61872857D01*
X138739524Y-61968095D01*
X138691905Y-62110952D01*
X138120476Y-62682381D01*
X138739524Y-62682381D01*
X139072857Y-61682381D02*
X139691905Y-61682381D01*
X139358571Y-62063333D01*
X139501429Y-62063333D01*
X139596667Y-62110952D01*
X139644286Y-62158571D01*
X139691905Y-62253810D01*
X139691905Y-62491905D01*
X139644286Y-62587143D01*
X139596667Y-62634762D01*
X139501429Y-62682381D01*
X139215714Y-62682381D01*
X139120476Y-62634762D01*
X139072857Y-62587143D01*
X160551905Y-75232381D02*
X160551905Y-74232381D01*
X160932858Y-74232381D01*
X161028096Y-74280000D01*
X161075715Y-74327619D01*
X161123334Y-74422857D01*
X161123334Y-74565714D01*
X161075715Y-74660952D01*
X161028096Y-74708571D01*
X160932858Y-74756190D01*
X160551905Y-74756190D01*
X162075715Y-75232381D02*
X161504286Y-75232381D01*
X161790000Y-75232381D02*
X161790000Y-74232381D01*
X161694762Y-74375238D01*
X161599524Y-74470476D01*
X161504286Y-74518095D01*
X128722381Y-49633095D02*
X127722381Y-49633095D01*
X127722381Y-49252142D01*
X127770000Y-49156904D01*
X127817619Y-49109285D01*
X127912857Y-49061666D01*
X128055714Y-49061666D01*
X128150952Y-49109285D01*
X128198571Y-49156904D01*
X128246190Y-49252142D01*
X128246190Y-49633095D01*
X127722381Y-48728333D02*
X127722381Y-48109285D01*
X128103333Y-48442619D01*
X128103333Y-48299761D01*
X128150952Y-48204523D01*
X128198571Y-48156904D01*
X128293810Y-48109285D01*
X128531905Y-48109285D01*
X128627143Y-48156904D01*
X128674762Y-48204523D01*
X128722381Y-48299761D01*
X128722381Y-48585476D01*
X128674762Y-48680714D01*
X128627143Y-48728333D01*
X160262381Y-99648095D02*
X159262381Y-99648095D01*
X159262381Y-99267142D01*
X159310000Y-99171904D01*
X159357619Y-99124285D01*
X159452857Y-99076666D01*
X159595714Y-99076666D01*
X159690952Y-99124285D01*
X159738571Y-99171904D01*
X159786190Y-99267142D01*
X159786190Y-99648095D01*
X159357619Y-98695714D02*
X159310000Y-98648095D01*
X159262381Y-98552857D01*
X159262381Y-98314761D01*
X159310000Y-98219523D01*
X159357619Y-98171904D01*
X159452857Y-98124285D01*
X159548095Y-98124285D01*
X159690952Y-98171904D01*
X160262381Y-98743333D01*
X160262381Y-98124285D01*
X159909143Y-53284381D02*
X159909143Y-52284381D01*
X159909143Y-52760571D02*
X160480572Y-52760571D01*
X160480572Y-53284381D02*
X160480572Y-52284381D01*
X161147238Y-52284381D02*
X161337715Y-52284381D01*
X161432953Y-52332000D01*
X161528191Y-52427238D01*
X161575810Y-52617714D01*
X161575810Y-52951048D01*
X161528191Y-53141524D01*
X161432953Y-53236762D01*
X161337715Y-53284381D01*
X161147238Y-53284381D01*
X161052000Y-53236762D01*
X160956762Y-53141524D01*
X160909143Y-52951048D01*
X160909143Y-52617714D01*
X160956762Y-52427238D01*
X161052000Y-52332000D01*
X161147238Y-52284381D01*
X162480572Y-53284381D02*
X162004381Y-53284381D01*
X162004381Y-52284381D01*
X162813905Y-52760571D02*
X163147239Y-52760571D01*
X163290096Y-53284381D02*
X162813905Y-53284381D01*
X162813905Y-52284381D01*
X163290096Y-52284381D01*
X163671048Y-52379619D02*
X163718667Y-52332000D01*
X163813905Y-52284381D01*
X164052001Y-52284381D01*
X164147239Y-52332000D01*
X164194858Y-52379619D01*
X164242477Y-52474857D01*
X164242477Y-52570095D01*
X164194858Y-52712952D01*
X163623429Y-53284381D01*
X164242477Y-53284381D01*
X157857143Y-125952381D02*
X157857143Y-124952381D01*
X157857143Y-125428571D02*
X158428572Y-125428571D01*
X158428572Y-125952381D02*
X158428572Y-124952381D01*
X159095238Y-124952381D02*
X159285715Y-124952381D01*
X159380953Y-125000000D01*
X159476191Y-125095238D01*
X159523810Y-125285714D01*
X159523810Y-125619048D01*
X159476191Y-125809524D01*
X159380953Y-125904762D01*
X159285715Y-125952381D01*
X159095238Y-125952381D01*
X159000000Y-125904762D01*
X158904762Y-125809524D01*
X158857143Y-125619048D01*
X158857143Y-125285714D01*
X158904762Y-125095238D01*
X159000000Y-125000000D01*
X159095238Y-124952381D01*
X160428572Y-125952381D02*
X159952381Y-125952381D01*
X159952381Y-124952381D01*
X160761905Y-125428571D02*
X161095239Y-125428571D01*
X161238096Y-125952381D02*
X160761905Y-125952381D01*
X160761905Y-124952381D01*
X161238096Y-124952381D01*
X161571429Y-124952381D02*
X162190477Y-124952381D01*
X161857143Y-125333333D01*
X162000001Y-125333333D01*
X162095239Y-125380952D01*
X162142858Y-125428571D01*
X162190477Y-125523810D01*
X162190477Y-125761905D01*
X162142858Y-125857143D01*
X162095239Y-125904762D01*
X162000001Y-125952381D01*
X161714286Y-125952381D01*
X161619048Y-125904762D01*
X161571429Y-125857143D01*
X112792143Y-133802381D02*
X112792143Y-132802381D01*
X112792143Y-133278571D02*
X113363572Y-133278571D01*
X113363572Y-133802381D02*
X113363572Y-132802381D01*
X114030238Y-132802381D02*
X114220715Y-132802381D01*
X114315953Y-132850000D01*
X114411191Y-132945238D01*
X114458810Y-133135714D01*
X114458810Y-133469048D01*
X114411191Y-133659524D01*
X114315953Y-133754762D01*
X114220715Y-133802381D01*
X114030238Y-133802381D01*
X113935000Y-133754762D01*
X113839762Y-133659524D01*
X113792143Y-133469048D01*
X113792143Y-133135714D01*
X113839762Y-132945238D01*
X113935000Y-132850000D01*
X114030238Y-132802381D01*
X115363572Y-133802381D02*
X114887381Y-133802381D01*
X114887381Y-132802381D01*
X115696905Y-133278571D02*
X116030239Y-133278571D01*
X116173096Y-133802381D02*
X115696905Y-133802381D01*
X115696905Y-132802381D01*
X116173096Y-132802381D01*
X117030239Y-133135714D02*
X117030239Y-133802381D01*
X116792143Y-132754762D02*
X116554048Y-133469048D01*
X117173096Y-133469048D01*
X146025714Y-128082381D02*
X146025714Y-127082381D01*
X146406667Y-127082381D01*
X146501905Y-127130000D01*
X146549524Y-127177619D01*
X146597143Y-127272857D01*
X146597143Y-127415714D01*
X146549524Y-127510952D01*
X146501905Y-127558571D01*
X146406667Y-127606190D01*
X146025714Y-127606190D01*
X147549524Y-128082381D02*
X146978095Y-128082381D01*
X147263809Y-128082381D02*
X147263809Y-127082381D01*
X147168571Y-127225238D01*
X147073333Y-127320476D01*
X146978095Y-127368095D01*
X147930476Y-127177619D02*
X147978095Y-127130000D01*
X148073333Y-127082381D01*
X148311429Y-127082381D01*
X148406667Y-127130000D01*
X148454286Y-127177619D01*
X148501905Y-127272857D01*
X148501905Y-127368095D01*
X148454286Y-127510952D01*
X147882857Y-128082381D01*
X148501905Y-128082381D01*
X108537143Y-59896666D02*
X108584762Y-59944285D01*
X108632381Y-60087142D01*
X108632381Y-60182380D01*
X108584762Y-60325238D01*
X108489524Y-60420476D01*
X108394286Y-60468095D01*
X108203810Y-60515714D01*
X108060952Y-60515714D01*
X107870476Y-60468095D01*
X107775238Y-60420476D01*
X107680000Y-60325238D01*
X107632381Y-60182380D01*
X107632381Y-60087142D01*
X107680000Y-59944285D01*
X107727619Y-59896666D01*
X107632381Y-59563333D02*
X107632381Y-58944285D01*
X108013333Y-59277619D01*
X108013333Y-59134761D01*
X108060952Y-59039523D01*
X108108571Y-58991904D01*
X108203810Y-58944285D01*
X108441905Y-58944285D01*
X108537143Y-58991904D01*
X108584762Y-59039523D01*
X108632381Y-59134761D01*
X108632381Y-59420476D01*
X108584762Y-59515714D01*
X108537143Y-59563333D01*
X108357143Y-68166666D02*
X108404762Y-68214285D01*
X108452381Y-68357142D01*
X108452381Y-68452380D01*
X108404762Y-68595238D01*
X108309524Y-68690476D01*
X108214286Y-68738095D01*
X108023810Y-68785714D01*
X107880952Y-68785714D01*
X107690476Y-68738095D01*
X107595238Y-68690476D01*
X107500000Y-68595238D01*
X107452381Y-68452380D01*
X107452381Y-68357142D01*
X107500000Y-68214285D01*
X107547619Y-68166666D01*
X107785714Y-67309523D02*
X108452381Y-67309523D01*
X107404762Y-67547619D02*
X108119048Y-67785714D01*
X108119048Y-67166666D01*
X124313334Y-104247143D02*
X124265715Y-104294762D01*
X124122858Y-104342381D01*
X124027620Y-104342381D01*
X123884762Y-104294762D01*
X123789524Y-104199524D01*
X123741905Y-104104286D01*
X123694286Y-103913810D01*
X123694286Y-103770952D01*
X123741905Y-103580476D01*
X123789524Y-103485238D01*
X123884762Y-103390000D01*
X124027620Y-103342381D01*
X124122858Y-103342381D01*
X124265715Y-103390000D01*
X124313334Y-103437619D01*
X124694286Y-103437619D02*
X124741905Y-103390000D01*
X124837143Y-103342381D01*
X125075239Y-103342381D01*
X125170477Y-103390000D01*
X125218096Y-103437619D01*
X125265715Y-103532857D01*
X125265715Y-103628095D01*
X125218096Y-103770952D01*
X124646667Y-104342381D01*
X125265715Y-104342381D01*
X124991905Y-135223016D02*
X124991905Y-134223016D01*
X125230000Y-134223016D01*
X125372858Y-134270635D01*
X125468096Y-134365873D01*
X125515715Y-134461111D01*
X125563334Y-134651587D01*
X125563334Y-134794445D01*
X125515715Y-134984921D01*
X125468096Y-135080159D01*
X125372858Y-135175397D01*
X125230000Y-135223016D01*
X124991905Y-135223016D01*
X125896667Y-134223016D02*
X126515715Y-134223016D01*
X126182381Y-134603968D01*
X126325239Y-134603968D01*
X126420477Y-134651587D01*
X126468096Y-134699206D01*
X126515715Y-134794445D01*
X126515715Y-135032540D01*
X126468096Y-135127778D01*
X126420477Y-135175397D01*
X126325239Y-135223016D01*
X126039524Y-135223016D01*
X125944286Y-135175397D01*
X125896667Y-135127778D01*
M02*
