G04 #@! TF.FileFunction,Copper,L2,Bot,Signal*
%FSLAX46Y46*%
G04 Gerber Fmt 4.6, Leading zero omitted, Abs format (unit mm)*
G04 Created by KiCad (PCBNEW 4.0.3+e1-6302~38~ubuntu14.04.1-stable) date Fri Mar 24 19:53:49 2017*
%MOMM*%
%LPD*%
G01*
G04 APERTURE LIST*
%ADD10C,0.100000*%
%ADD11C,1.600000*%
%ADD12R,1.800000X1.800000*%
%ADD13O,1.800000X1.800000*%
%ADD14C,2.000000*%
%ADD15C,1.524000*%
%ADD16R,1.600000X1.600000*%
%ADD17O,1.600000X1.600000*%
%ADD18C,1.000000*%
%ADD19R,1.000000X1.000000*%
%ADD20R,2.200000X2.200000*%
%ADD21O,2.200000X2.200000*%
%ADD22C,1.800000*%
%ADD23R,1.700000X1.700000*%
%ADD24O,1.700000X1.700000*%
%ADD25R,1.524000X1.524000*%
%ADD26C,0.250000*%
%ADD27C,0.500000*%
G04 APERTURE END LIST*
D10*
D11*
X110490000Y-96520000D03*
X110490000Y-101520000D03*
D12*
X110490000Y-92710000D03*
D13*
X113030000Y-92710000D03*
X115570000Y-92710000D03*
D14*
X153090000Y-54610000D03*
X148590000Y-54610000D03*
X153090000Y-48110000D03*
X148590000Y-48110000D03*
D15*
X138430000Y-128270000D03*
X133350000Y-128270000D03*
D16*
X120650000Y-60960000D03*
D17*
X128270000Y-93980000D03*
X120650000Y-63500000D03*
X128270000Y-91440000D03*
X120650000Y-66040000D03*
X128270000Y-88900000D03*
X120650000Y-68580000D03*
X128270000Y-86360000D03*
X120650000Y-71120000D03*
X128270000Y-83820000D03*
X120650000Y-73660000D03*
X128270000Y-81280000D03*
X120650000Y-76200000D03*
X128270000Y-78740000D03*
X120650000Y-78740000D03*
X128270000Y-76200000D03*
X120650000Y-81280000D03*
X128270000Y-73660000D03*
X120650000Y-83820000D03*
X128270000Y-71120000D03*
X120650000Y-86360000D03*
X128270000Y-68580000D03*
X120650000Y-88900000D03*
X128270000Y-66040000D03*
X120650000Y-91440000D03*
X128270000Y-63500000D03*
X120650000Y-93980000D03*
X128270000Y-60960000D03*
D14*
X142930000Y-54610000D03*
X138430000Y-54610000D03*
X142930000Y-48110000D03*
X138430000Y-48110000D03*
D18*
X149860000Y-120650000D03*
X148590000Y-121920000D03*
D19*
X148590000Y-119380000D03*
D20*
X128270000Y-127000000D03*
D21*
X123190000Y-127000000D03*
D12*
X133985000Y-54610000D03*
D22*
X131445000Y-54610000D03*
D18*
X149860000Y-114300000D03*
X148590000Y-115570000D03*
D19*
X148590000Y-113030000D03*
D18*
X149860000Y-107950000D03*
X148590000Y-109220000D03*
D19*
X148590000Y-106680000D03*
D18*
X149860000Y-101600000D03*
X148590000Y-102870000D03*
D19*
X148590000Y-100330000D03*
D18*
X149860000Y-95250000D03*
X148590000Y-96520000D03*
D19*
X148590000Y-93980000D03*
D18*
X149860000Y-88900000D03*
X148590000Y-90170000D03*
D19*
X148590000Y-87630000D03*
D18*
X149860000Y-82550000D03*
X148590000Y-83820000D03*
D19*
X148590000Y-81280000D03*
D18*
X149860000Y-76200000D03*
X148590000Y-77470000D03*
D19*
X148590000Y-74930000D03*
D18*
X149860000Y-69850000D03*
X148590000Y-71120000D03*
D19*
X148590000Y-68580000D03*
D18*
X149860000Y-63500000D03*
X148590000Y-64770000D03*
D19*
X148590000Y-62230000D03*
D15*
X126365000Y-54610000D03*
X116205000Y-54610000D03*
X126365000Y-51435000D03*
X116205000Y-51435000D03*
X133350000Y-121920000D03*
X143510000Y-121920000D03*
X133350000Y-115570000D03*
X143510000Y-115570000D03*
X133350000Y-109220000D03*
X143510000Y-109220000D03*
X133350000Y-102870000D03*
X143510000Y-102870000D03*
X133350000Y-96520000D03*
X143510000Y-96520000D03*
X133350000Y-90170000D03*
X143510000Y-90170000D03*
X133350000Y-83820000D03*
X143510000Y-83820000D03*
X133350000Y-77470000D03*
X143510000Y-77470000D03*
X133350000Y-71120000D03*
X143510000Y-71120000D03*
X133350000Y-64770000D03*
X143510000Y-64770000D03*
D18*
X116205000Y-70485000D03*
X114305000Y-70485000D03*
D15*
X133350000Y-119380000D03*
X143510000Y-119380000D03*
X133350000Y-113030000D03*
X143510000Y-113030000D03*
X133350000Y-106680000D03*
X143510000Y-106680000D03*
X133350000Y-100330000D03*
X143510000Y-100330000D03*
X133350000Y-93980000D03*
X143510000Y-93980000D03*
X133350000Y-87630000D03*
X143510000Y-87630000D03*
X133350000Y-81280000D03*
X143510000Y-81280000D03*
X133350000Y-74930000D03*
X143510000Y-74930000D03*
X133350000Y-68580000D03*
X143510000Y-68580000D03*
X133350000Y-62230000D03*
X143510000Y-62230000D03*
D23*
X161290000Y-72390000D03*
D24*
X161290000Y-69850000D03*
X161290000Y-67310000D03*
X161290000Y-64770000D03*
X161290000Y-62230000D03*
X161290000Y-59690000D03*
D23*
X133350000Y-48895000D03*
D24*
X130810000Y-48895000D03*
D15*
X156210000Y-80010000D03*
X161710000Y-80010000D03*
X156210000Y-84210000D03*
X161710000Y-84210000D03*
X156210000Y-88410000D03*
X161710000Y-88410000D03*
X156210000Y-92610000D03*
X161710000Y-92610000D03*
X156210000Y-96810000D03*
X161710000Y-96810000D03*
X156210000Y-101010000D03*
X161710000Y-101010000D03*
X156210000Y-105210000D03*
X161710000Y-105210000D03*
X156210000Y-109410000D03*
X161710000Y-109410000D03*
X156210000Y-113610000D03*
X161710000Y-113610000D03*
X156210000Y-117810000D03*
X161710000Y-117810000D03*
X144740000Y-129530000D03*
D25*
X149740000Y-129530000D03*
D11*
X110490000Y-62230000D03*
X110490000Y-57230000D03*
X110490000Y-65405000D03*
X110490000Y-70405000D03*
D16*
X125730000Y-100330000D03*
D11*
X123230000Y-100330000D03*
D20*
X128270000Y-132080000D03*
D21*
X123190000Y-132080000D03*
D26*
X142930000Y-54610000D02*
X142875000Y-54610000D01*
X110490000Y-101520000D02*
X110490000Y-106680000D01*
X110490000Y-106680000D02*
X116840000Y-113030000D01*
X116840000Y-113030000D02*
X116840000Y-127000000D01*
X116840000Y-127000000D02*
X121920000Y-132080000D01*
X121920000Y-132080000D02*
X123190000Y-132080000D01*
X113030000Y-67865000D02*
X110490000Y-70405000D01*
X113030000Y-59690000D02*
X113030000Y-67865000D01*
X110570000Y-57230000D02*
X113030000Y-59690000D01*
X110490000Y-57230000D02*
X110570000Y-57230000D01*
X142930000Y-48110000D02*
X142930000Y-48205000D01*
D27*
X114300000Y-100330000D02*
X114300000Y-104140000D01*
X114300000Y-104140000D02*
X115570000Y-105410000D01*
X114300000Y-100330000D02*
X110490000Y-96520000D01*
X132080000Y-121920000D02*
X133350000Y-121920000D01*
X115570000Y-105410000D02*
X132080000Y-121920000D01*
D26*
X122555000Y-76200000D02*
X123825000Y-74930000D01*
X123825000Y-74930000D02*
X123825000Y-55880000D01*
X126365000Y-54610000D02*
X125095000Y-54610000D01*
X125095000Y-54610000D02*
X123825000Y-55880000D01*
X122555000Y-76200000D02*
X120650000Y-76200000D01*
X113030000Y-92710000D02*
X113030000Y-93980000D01*
X113030000Y-93980000D02*
X116840000Y-97790000D01*
X124460000Y-97790000D02*
X125730000Y-99060000D01*
X116840000Y-97790000D02*
X124460000Y-97790000D01*
X120650000Y-76200000D02*
X119380000Y-76200000D01*
X113030000Y-87630000D02*
X113030000Y-93980000D01*
X117475000Y-83185000D02*
X113030000Y-87630000D01*
X117475000Y-78105000D02*
X117475000Y-83185000D01*
X119380000Y-76200000D02*
X117475000Y-78105000D01*
X125730000Y-99060000D02*
X125730000Y-100330000D01*
X125730000Y-99060000D02*
X125730000Y-100330000D01*
X120650000Y-57785000D02*
X120650000Y-56515000D01*
X118745000Y-54610000D02*
X116205000Y-54610000D01*
X120650000Y-56515000D02*
X118745000Y-54610000D01*
X120650000Y-57785000D02*
X120650000Y-60960000D01*
X129540000Y-97155000D02*
X129540000Y-95250000D01*
X129540000Y-95250000D02*
X128270000Y-93980000D01*
X131445000Y-111125000D02*
X133350000Y-113030000D01*
X131445000Y-106680000D02*
X131445000Y-111125000D01*
X129540000Y-104775000D02*
X131445000Y-106680000D01*
X129540000Y-97155000D02*
X129540000Y-104775000D01*
X130810000Y-95250000D02*
X130810000Y-94615000D01*
X129540000Y-91440000D02*
X128270000Y-91440000D01*
X130175000Y-92075000D02*
X129540000Y-91440000D01*
X130175000Y-92710000D02*
X130175000Y-92075000D01*
X130175000Y-93980000D02*
X130175000Y-92710000D01*
X130810000Y-94615000D02*
X130175000Y-93980000D01*
X130810000Y-104140000D02*
X133350000Y-106680000D01*
X130810000Y-95250000D02*
X130810000Y-104140000D01*
X161290000Y-72390000D02*
X156210000Y-72390000D01*
X156210000Y-72390000D02*
X154940000Y-71120000D01*
X130810000Y-91440000D02*
X130810000Y-90170000D01*
X129540000Y-88900000D02*
X128270000Y-88900000D01*
X130810000Y-90170000D02*
X129540000Y-88900000D01*
X147320000Y-60325000D02*
X149860000Y-60325000D01*
X154940000Y-65405000D02*
X154940000Y-71120000D01*
X149860000Y-60325000D02*
X154940000Y-65405000D01*
X140970000Y-62230000D02*
X142240000Y-60960000D01*
X142240000Y-60960000D02*
X142875000Y-60325000D01*
X142875000Y-60325000D02*
X147320000Y-60325000D01*
X140970000Y-99060000D02*
X140970000Y-62230000D01*
X139700000Y-100330000D02*
X140970000Y-99060000D01*
X133350000Y-100330000D02*
X139700000Y-100330000D01*
X130810000Y-93345000D02*
X131445000Y-93980000D01*
X131445000Y-98425000D02*
X133350000Y-100330000D01*
X131445000Y-93980000D02*
X131445000Y-98425000D01*
X130810000Y-91440000D02*
X130810000Y-93345000D01*
X161290000Y-69850000D02*
X156845000Y-69850000D01*
X155575000Y-68580000D02*
X155575000Y-67945000D01*
X156845000Y-69850000D02*
X155575000Y-68580000D01*
X131445000Y-88900000D02*
X131445000Y-88265000D01*
X129540000Y-86360000D02*
X128270000Y-86360000D01*
X131445000Y-88265000D02*
X129540000Y-86360000D01*
X144780000Y-59690000D02*
X150495000Y-59690000D01*
X155575000Y-64770000D02*
X155575000Y-67945000D01*
X150495000Y-59690000D02*
X155575000Y-64770000D01*
X139700000Y-62230000D02*
X142240000Y-59690000D01*
X138430000Y-93980000D02*
X139700000Y-92710000D01*
X139700000Y-92710000D02*
X139700000Y-62230000D01*
X133350000Y-93980000D02*
X138430000Y-93980000D01*
X142240000Y-59690000D02*
X144780000Y-59690000D01*
X131445000Y-88900000D02*
X131445000Y-92075000D01*
X131445000Y-92075000D02*
X133350000Y-93980000D01*
X161290000Y-67310000D02*
X157480000Y-67310000D01*
X157480000Y-67310000D02*
X156210000Y-66040000D01*
X130810000Y-85090000D02*
X129540000Y-83820000D01*
X129540000Y-83820000D02*
X128270000Y-83820000D01*
X141605000Y-59055000D02*
X151130000Y-59055000D01*
X156210000Y-66040000D02*
X156210000Y-64135000D01*
X156210000Y-64135000D02*
X151130000Y-59055000D01*
X138430000Y-62230000D02*
X141605000Y-59055000D01*
X133350000Y-87630000D02*
X137795000Y-87630000D01*
X138430000Y-86360000D02*
X138430000Y-62230000D01*
X137160000Y-87630000D02*
X138430000Y-86360000D01*
X137795000Y-87630000D02*
X137160000Y-87630000D01*
X130810000Y-85090000D02*
X133350000Y-87630000D01*
X130810000Y-76200000D02*
X130810000Y-74930000D01*
X129540000Y-73660000D02*
X128270000Y-73660000D01*
X130810000Y-74930000D02*
X129540000Y-73660000D01*
X130810000Y-78740000D02*
X133350000Y-81280000D01*
X130810000Y-76200000D02*
X130810000Y-78740000D01*
X130810000Y-72390000D02*
X129540000Y-71120000D01*
X129540000Y-71120000D02*
X128270000Y-71120000D01*
X130810000Y-72390000D02*
X133350000Y-74930000D01*
X132080000Y-68580000D02*
X128270000Y-68580000D01*
X133350000Y-68580000D02*
X132080000Y-68580000D01*
X130810000Y-63500000D02*
X128270000Y-66040000D01*
X133350000Y-62230000D02*
X132080000Y-62230000D01*
X132080000Y-62230000D02*
X130810000Y-63500000D01*
X120650000Y-93980000D02*
X123825000Y-93980000D01*
X123825000Y-93980000D02*
X125730000Y-95885000D01*
X130175000Y-116205000D02*
X130175000Y-117475000D01*
X132080000Y-119380000D02*
X133350000Y-119380000D01*
X130175000Y-117475000D02*
X132080000Y-119380000D01*
X130175000Y-107315000D02*
X130175000Y-116205000D01*
X128270000Y-105410000D02*
X130175000Y-107315000D01*
X128270000Y-98425000D02*
X128270000Y-105410000D01*
X125730000Y-95885000D02*
X128270000Y-98425000D01*
D27*
X148590000Y-121920000D02*
X148590000Y-128380000D01*
X148590000Y-128380000D02*
X149740000Y-129530000D01*
X128270000Y-132080000D02*
X148590000Y-132080000D01*
X149860000Y-130810000D02*
X149860000Y-129650000D01*
X148590000Y-132080000D02*
X149860000Y-130810000D01*
X149860000Y-129650000D02*
X149740000Y-129530000D01*
X149740000Y-129530000D02*
X149740000Y-129420000D01*
X148590000Y-115570000D02*
X147320000Y-116840000D01*
X147320000Y-120650000D02*
X148590000Y-121920000D01*
X147320000Y-116840000D02*
X147320000Y-120650000D01*
X148590000Y-109220000D02*
X147320000Y-110490000D01*
X147320000Y-114300000D02*
X148590000Y-115570000D01*
X147320000Y-110490000D02*
X147320000Y-114300000D01*
X148590000Y-96520000D02*
X147320000Y-95250000D01*
X147320000Y-91440000D02*
X148590000Y-90170000D01*
X147320000Y-95250000D02*
X147320000Y-91440000D01*
X148590000Y-90170000D02*
X147320000Y-88900000D01*
X147320000Y-85090000D02*
X148590000Y-83820000D01*
X147320000Y-88900000D02*
X147320000Y-85725000D01*
X147320000Y-85725000D02*
X147320000Y-85090000D01*
X148590000Y-83820000D02*
X147320000Y-82550000D01*
X147320000Y-82550000D02*
X147320000Y-78740000D01*
X147320000Y-78740000D02*
X148590000Y-77470000D01*
X148590000Y-77470000D02*
X147320000Y-76200000D01*
X148590000Y-109220000D02*
X147320000Y-107950000D01*
X147320000Y-104140000D02*
X148590000Y-102870000D01*
X147320000Y-107950000D02*
X147320000Y-104140000D01*
X148590000Y-102870000D02*
X147320000Y-101600000D01*
X147320000Y-101600000D02*
X147320000Y-97790000D01*
X147320000Y-97790000D02*
X148590000Y-96520000D01*
X147320000Y-69850000D02*
X147320000Y-66040000D01*
X147320000Y-76200000D02*
X147320000Y-72390000D01*
X147320000Y-72390000D02*
X148590000Y-71120000D01*
X148590000Y-71120000D02*
X147320000Y-69850000D01*
X147320000Y-66040000D02*
X148590000Y-64770000D01*
D26*
X138430000Y-48110000D02*
X138280000Y-48110000D01*
X138280000Y-48110000D02*
X137160000Y-46990000D01*
X137160000Y-46990000D02*
X125095000Y-46990000D01*
X121920000Y-68580000D02*
X120650000Y-68580000D01*
X122555000Y-67945000D02*
X121920000Y-68580000D01*
X122555000Y-49530000D02*
X122555000Y-67945000D01*
X125095000Y-46990000D02*
X122555000Y-49530000D01*
X120650000Y-73660000D02*
X120015000Y-73660000D01*
X120015000Y-73660000D02*
X118745000Y-72390000D01*
X118745000Y-72390000D02*
X118745000Y-70485000D01*
X118745000Y-60325000D02*
X118745000Y-70485000D01*
X118745000Y-70485000D02*
X118745000Y-72390000D01*
X114300000Y-55880000D02*
X118745000Y-60325000D01*
X114300000Y-53340000D02*
X114300000Y-55880000D01*
X116205000Y-51435000D02*
X114300000Y-53340000D01*
X128905000Y-52705000D02*
X128905000Y-56515000D01*
X130810000Y-48895000D02*
X130810000Y-50800000D01*
X130810000Y-50800000D02*
X128905000Y-52705000D01*
X128905000Y-56515000D02*
X127635000Y-57785000D01*
X127635000Y-57785000D02*
X126365000Y-57785000D01*
X127000000Y-57785000D02*
X126365000Y-57785000D01*
X126365000Y-57785000D02*
X125095000Y-59055000D01*
X123825000Y-86360000D02*
X120650000Y-86360000D01*
X125095000Y-85090000D02*
X125095000Y-59055000D01*
X123825000Y-86360000D02*
X125095000Y-85090000D01*
X127000000Y-57785000D02*
X127635000Y-57785000D01*
X130810000Y-50800000D02*
X128905000Y-52705000D01*
X128905000Y-56515000D02*
X127635000Y-57785000D01*
D27*
X161710000Y-84210000D02*
X161680000Y-84210000D01*
X161680000Y-84210000D02*
X159385000Y-81915000D01*
X159385000Y-81915000D02*
X154940000Y-81915000D01*
X154940000Y-81915000D02*
X153670000Y-80645000D01*
X153670000Y-80645000D02*
X153670000Y-69850000D01*
X153670000Y-69850000D02*
X151765000Y-67945000D01*
X151765000Y-67945000D02*
X149225000Y-67945000D01*
X149225000Y-67945000D02*
X148590000Y-68580000D01*
X161710000Y-88410000D02*
X161435000Y-88410000D01*
X161435000Y-88410000D02*
X159385000Y-86360000D01*
X159385000Y-86360000D02*
X155575000Y-86360000D01*
X155575000Y-86360000D02*
X152400000Y-83185000D01*
X152400000Y-83185000D02*
X152400000Y-76200000D01*
X152400000Y-76200000D02*
X150495000Y-74295000D01*
X150495000Y-74295000D02*
X149225000Y-74295000D01*
X149225000Y-74295000D02*
X148590000Y-74930000D01*
M02*
